<?xml version="1.0" encoding="UTF-8"?>
<!DOCTYPE svg PUBLIC "-//W3C//DTD SVG 1.1//EN" "http://www.w3.org/Graphics/SVG/1.1/DTD/svg11.dtd">
<svg xmlns="http://www.w3.org/2000/svg" version="1.1" width="1191px" height="842px" style="shape-rendering:geometricPrecision; text-rendering:geometricPrecision; image-rendering:optimizeQuality; fill-rule:evenodd; clip-rule:evenodd" xmlns:xlink="http://www.w3.org/1999/xlink">
<g><path style="opacity:0.004" fill="#fefffe" d="M 329.5,6.5 C 330.833,7.16667 330.833,7.16667 329.5,6.5 Z"/></g>
<g><path style="opacity:1" fill="#1e7bbf" d="M 681.5,24.5 C 681.833,24.5 682.167,24.5 682.5,24.5C 683.907,26.6139 685.907,28.1139 688.5,29C 687.167,29.6667 685.833,30.3333 684.5,31C 687.338,31.3695 690.171,31.2029 693,30.5C 699.118,32.252 705.285,33.5854 711.5,34.5C 712.64,35.8014 713.973,36.9681 715.5,38C 724.05,40.7401 732.383,44.0734 740.5,48C 745.384,49.6839 750.384,50.8505 755.5,51.5C 759.787,52.6483 763.787,54.315 767.5,56.5C 767.414,57.4959 767.748,58.3292 768.5,59C 774.163,61.0416 779.496,63.5416 784.5,66.5C 784.52,68.143 783.853,69.4763 782.5,70.5C 785.899,72.2683 789.232,74.1017 792.5,76C 794.895,76.1565 797.229,75.6565 799.5,74.5C 802.05,75.8704 804.717,77.0371 807.5,78C 808.009,80.5697 809.009,82.9031 810.5,85C 813.675,85.0343 816.675,84.201 819.5,82.5C 868.647,110.112 912.147,145.112 950,187.5C 964.807,204.131 978.641,221.465 991.5,239.5C 992.909,243.349 994.076,247.349 995,251.5C 996.011,252.337 997.178,252.67 998.5,252.5C 998.5,254.833 998.5,257.167 998.5,259.5C 1002.49,259.011 1004.82,260.678 1005.5,264.5C 1009.82,264.959 1010.49,266.792 1007.5,270C 1009.04,271.932 1010.21,274.099 1011,276.5C 1012.49,275.253 1013.99,275.253 1015.5,276.5C 1017.74,279.936 1020.41,282.936 1023.5,285.5C 1025.33,287.147 1026.66,289.147 1027.5,291.5C 1029.87,300.637 1031.04,309.97 1031,319.5C 1031.6,353.171 1031.44,386.838 1030.5,420.5C 1030.23,428.539 1029.56,436.539 1028.5,444.5C 1027.88,444.611 1027.38,444.944 1027,445.5C 1025.81,452.473 1024.81,459.473 1024,466.5C 1021.45,471.975 1019.62,477.642 1018.5,483.5C 1017.5,483.5 1016.5,483.5 1015.5,483.5C 1015.36,487.15 1016.03,490.65 1017.5,494C 1016.83,495 1016.17,496 1015.5,497C 1017.44,502.124 1016.44,506.457 1012.5,510C 1014.89,515.452 1014.22,520.619 1010.5,525.5C 1011.35,527.409 1011.68,529.409 1011.5,531.5C 1011.14,534.267 1010.48,536.933 1009.5,539.5C 1007.88,541.121 1006.72,543.121 1006,545.5C 1002.33,556.518 998.833,567.518 995.5,578.5C 989.876,594.751 982.876,610.418 974.5,625.5C 972.926,625.937 971.759,626.937 971,628.5C 970.16,632.668 967.66,635.168 963.5,636C 965.158,636.725 965.658,637.892 965,639.5C 962.398,642.872 960.231,646.539 958.5,650.5C 953.044,652.413 950.878,656.08 952,661.5C 951.586,661.043 951.086,660.709 950.5,660.5C 949.534,662.396 949.201,664.396 949.5,666.5C 948.5,666.5 947.5,666.5 946.5,666.5C 946.57,671.361 944.737,675.361 941,678.5C 940.51,679.793 940.343,681.127 940.5,682.5C 938.218,686.777 935.551,690.777 932.5,694.5C 931.5,694.5 930.5,694.5 929.5,694.5C 929.762,693.022 929.429,691.689 928.5,690.5C 928.167,691.333 927.833,692.167 927.5,693C 927.943,694.825 928.277,696.658 928.5,698.5C 924.743,698.286 924.076,699.286 926.5,701.5C 925.311,702.429 923.978,702.762 922.5,702.5C 922.546,705.551 921.546,708.218 919.5,710.5C 918.675,711.386 917.675,711.719 916.5,711.5C 915.175,717.011 912.341,721.678 908,725.5C 906.739,725.241 905.739,724.574 905,723.5C 905.255,726.082 905.422,728.748 905.5,731.5C 902.926,736.409 899.592,740.742 895.5,744.5C 893.095,745.687 890.761,747.187 888.5,749C 886.382,750.142 884.382,750.642 882.5,750.5C 882.291,751.086 881.957,751.586 881.5,752C 882.99,752.745 883.99,753.912 884.5,755.5C 882.548,757.126 881.214,759.126 880.5,761.5C 878.801,761.66 877.134,761.494 875.5,761C 872.804,760.196 870.304,759.029 868,757.5C 866.601,758.227 865.101,758.727 863.5,759C 866.252,760.751 869.252,761.584 872.5,761.5C 872.67,762.822 872.337,763.989 871.5,765C 863.548,767.303 856.214,769.469 849.5,771.5C 849.023,772.478 848.357,773.311 847.5,774C 845.5,774.333 843.5,774.667 841.5,775C 842.056,775.383 842.389,775.883 842.5,776.5C 836.323,778.961 829.99,780.961 823.5,782.5C 813.877,783.124 804.877,785.624 796.5,790C 794.167,790.333 791.833,790.667 789.5,791C 788.244,791.417 787.577,792.25 787.5,793.5C 772.111,798.264 756.444,801.93 740.5,804.5C 734.113,804.742 727.78,805.409 721.5,806.5C 715.144,805.552 708.81,805.552 702.5,806.5C 705.107,807.318 707.774,807.818 710.5,808C 709.5,808.333 708.5,808.667 707.5,809C 696.255,810.287 685.255,812.121 674.5,814.5C 673.5,814.5 672.5,814.5 671.5,814.5C 648.498,814.667 625.498,814.5 602.5,814C 582.856,811.604 563.189,809.438 543.5,807.5C 491.139,797.878 440.472,782.712 391.5,762C 357.085,719.565 326.585,674.399 300,626.5C 292.103,611.973 285.27,596.973 279.5,581.5C 277.127,573.005 274.293,564.671 271,556.5C 270.319,552.798 270.485,549.131 271.5,545.5C 271.167,544.833 270.833,544.167 270.5,543.5C 269.833,544.5 269.167,545.5 268.5,546.5C 267.984,543.749 266.817,541.416 265,539.5C 264.402,535.943 263.569,532.443 262.5,529C 262.833,528.5 263.167,528 263.5,527.5C 264.148,529.149 265.148,530.482 266.5,531.5C 266.833,530.833 267.167,530.167 267.5,529.5C 264.687,524.346 265.187,523.679 269,527.5C 269.5,527 270,526.5 270.5,526C 269.167,524.667 269.167,523.333 270.5,522C 269.874,521.25 269.374,520.416 269,519.5C 268.667,519.833 268.333,520.167 268,520.5C 267.821,517.447 267.321,514.447 266.5,511.5C 265.749,512.376 265.249,513.376 265,514.5C 263.234,512.404 261.901,510.071 261,507.5C 260.667,507.833 260.333,508.167 260,508.5C 259.28,506.888 259.446,505.388 260.5,504C 259.207,503.51 257.873,503.343 256.5,503.5C 254.605,497.753 252.605,492.086 250.5,486.5C 248.186,475.946 246.519,465.279 245.5,454.5C 245.323,435.883 243.656,417.549 240.5,399.5C 239.388,372.85 239.221,346.183 240,319.5C 240.108,312.089 240.775,304.755 242,297.5C 276.775,242.692 317.609,192.526 364.5,147C 412.369,103.38 466.702,69.8803 527.5,46.5C 530.839,46.1103 534.173,45.6103 537.5,45C 542.485,41.4267 548.151,39.4267 554.5,39C 558.17,38.3618 561.67,38.8618 565,40.5C 566.734,39.7511 568.567,39.2511 570.5,39C 567.362,37.7556 564.028,37.089 560.5,37C 563.186,35.6322 565.853,34.2989 568.5,33C 569.381,32.2917 570.047,31.4584 570.5,30.5C 570.833,30.5 571.167,30.5 571.5,30.5C 576.157,29.5043 580.824,28.5043 585.5,27.5C 587.486,27.7868 589.32,28.4535 591,29.5C 591.5,29.3333 592,29.1667 592.5,29C 591.62,27.6439 591.286,26.1439 591.5,24.5C 596.154,23.572 600.821,23.072 605.5,23C 602.937,23.763 602.937,24.263 605.5,24.5C 606.833,23.8333 608.167,23.1667 609.5,22.5C 612.797,23.4959 616.131,23.6626 619.5,23C 617.624,21.9827 615.624,21.1494 613.5,20.5C 616.318,18.9526 618.984,17.2859 621.5,15.5C 626.464,15.7448 631.298,15.0782 636,13.5C 640.338,13.9029 644.505,14.9029 648.5,16.5C 649.262,17.6283 649.929,18.7949 650.5,20C 653.942,20.1165 656.942,21.2832 659.5,23.5C 660.696,23.1543 660.696,22.6543 659.5,22C 660.5,21.8333 661.5,21.6667 662.5,21.5C 668.771,22.9858 675.105,23.9858 681.5,24.5 Z"/></g>
<g><path style="opacity:1" fill="#4385b8" d="M 681.5,24.5 C 675.105,23.9858 668.771,22.9858 662.5,21.5C 661.5,21.6667 660.5,21.8333 659.5,22C 660.696,22.6543 660.696,23.1543 659.5,23.5C 656.942,21.2832 653.942,20.1165 650.5,20C 649.929,18.7949 649.262,17.6283 648.5,16.5C 644.505,14.9029 640.338,13.9029 636,13.5C 631.298,15.0782 626.464,15.7448 621.5,15.5C 627.493,12.9234 633.826,11.7568 640.5,12C 654.43,15.7022 668.097,19.8688 681.5,24.5 Z"/></g>
<g><path style="opacity:1" fill="#3d83b9" d="M 621.5,15.5 C 618.984,17.2859 616.318,18.9526 613.5,20.5C 615.624,21.1494 617.624,21.9827 619.5,23C 616.131,23.6626 612.797,23.4959 609.5,22.5C 608.167,23.1667 606.833,23.8333 605.5,24.5C 602.937,24.263 602.937,23.763 605.5,23C 600.821,23.072 596.154,23.572 591.5,24.5C 591.286,26.1439 591.62,27.6439 592.5,29C 592,29.1667 591.5,29.3333 591,29.5C 589.32,28.4535 587.486,27.7868 585.5,27.5C 580.824,28.5043 576.157,29.5043 571.5,30.5C 587.719,24.3186 604.386,19.3186 621.5,15.5 Z"/></g>
<g><path style="opacity:1" fill="#538dbc" d="M 682.5,24.5 C 692.391,27.4626 702.057,30.7959 711.5,34.5C 705.285,33.5854 699.118,32.252 693,30.5C 690.171,31.2029 687.338,31.3695 684.5,31C 685.833,30.3333 687.167,29.6667 688.5,29C 685.907,28.1139 683.907,26.6139 682.5,24.5 Z"/></g>
<g><path style="opacity:1" fill="#4184b8" d="M 570.5,30.5 C 570.047,31.4584 569.381,32.2917 568.5,33C 565.853,34.2989 563.186,35.6322 560.5,37C 564.028,37.089 567.362,37.7556 570.5,39C 568.567,39.2511 566.734,39.7511 565,40.5C 561.67,38.8618 558.17,38.3618 554.5,39C 548.151,39.4267 542.485,41.4267 537.5,45C 534.173,45.6103 530.839,46.1103 527.5,46.5C 541.449,40.4024 555.782,35.0691 570.5,30.5 Z"/></g>
<g><path style="opacity:0.004" fill="#fefffe" d="M 338.5,45.5 C 339.833,46.1667 339.833,46.1667 338.5,45.5 Z"/></g>
<g><path style="opacity:0.769" fill="#6196be" d="M 711.5,34.5 C 726.668,39.0922 741.334,44.7589 755.5,51.5C 750.384,50.8505 745.384,49.6839 740.5,48C 732.383,44.0734 724.05,40.7401 715.5,38C 713.973,36.9681 712.64,35.8014 711.5,34.5 Z"/></g>
<g><path style="opacity:0.004" fill="#fefffe" d="M 959.5,49.5 C 960.833,50.1667 960.833,50.1667 959.5,49.5 Z"/></g>
<g><path style="opacity:1" fill="#010209" d="M 654.5,63.5 C 657.833,63.5 661.167,63.5 664.5,63.5C 664.023,78.2546 663.023,92.9213 661.5,107.5C 660.532,109.607 660.198,111.941 660.5,114.5C 658.5,114.5 656.5,114.5 654.5,114.5C 654.825,107.313 654.491,100.313 653.5,93.5C 652.833,93.5 652.167,93.5 651.5,93.5C 646.025,92.5111 640.358,92.1778 634.5,92.5C 634.5,100.167 634.5,107.833 634.5,115.5C 631.833,115.5 629.167,115.5 626.5,115.5C 626.5,112.833 626.5,110.167 626.5,107.5C 626.637,93.1234 625.97,78.7901 624.5,64.5C 627.167,64.5 629.833,64.5 632.5,64.5C 632.334,70.1764 632.501,75.8431 633,81.5C 633.36,83.6079 634.027,85.6079 635,87.5C 641.386,86.2856 647.553,84.9523 653.5,83.5C 654.276,76.8627 654.609,70.1961 654.5,63.5 Z"/></g>
<g><path style="opacity:1" fill="#2677b2" d="M 762.5,84.5 C 760.609,83.4639 758.776,83.4639 757,84.5C 753.527,94.5879 749.86,104.588 746,114.5C 743.986,103.11 741.653,91.7766 739,80.5C 736.303,75.7524 732.136,73.7524 726.5,74.5C 725.04,83.8299 722.706,92.8299 719.5,101.5C 719.798,94.9422 721.131,88.6089 723.5,82.5C 723.798,79.3966 722.465,77.73 719.5,77.5C 719.5,76.1667 719.5,74.8333 719.5,73.5C 720.978,73.762 722.311,73.4287 723.5,72.5C 726.027,67.6525 729.86,66.3192 735,68.5C 738.007,66.1614 738.84,66.9947 737.5,71C 738.994,73.6388 739.661,76.4721 739.5,79.5C 740.978,79.762 742.311,79.4287 743.5,78.5C 741.829,76.4902 741.162,74.1569 741.5,71.5C 742.822,71.33 743.989,71.6634 745,72.5C 745.66,75.0472 745.493,77.5472 744.5,80C 746.953,85.5175 748.286,91.3508 748.5,97.5C 749.5,97.5 750.5,97.5 751.5,97.5C 752.766,93.2641 752.766,89.2641 751.5,85.5C 752.631,84.3961 753.465,84.7295 754,86.5C 754.101,83.5648 755.601,82.2315 758.5,82.5C 760.355,82.3402 761.688,83.0069 762.5,84.5 Z"/></g>
<g><path style="opacity:0.004" fill="#fefffe" d="M 119.5,68.5 C 120.833,69.1667 120.833,69.1667 119.5,68.5 Z"/></g>
<g><path style="opacity:1" fill="#2b72a5" d="M 704.5,79.5 C 703.475,76.0264 702.808,72.3597 702.5,68.5C 698.521,67.5349 694.521,67.0349 690.5,67C 684.997,76.847 679.663,86.6803 674.5,96.5C 674.916,92.161 676.249,88.161 678.5,84.5C 677.144,81.1028 677.311,77.7694 679,74.5C 682.067,78.2978 684.4,77.6311 686,72.5C 685.797,67.3422 688.297,65.0089 693.5,65.5C 696.611,65.6945 699.611,66.3611 702.5,67.5C 704.145,71.3196 704.811,75.3196 704.5,79.5 Z"/></g>
<g><path style="opacity:1" fill="#03050f" d="M 704.5,79.5 C 706.917,94.0831 708.583,108.75 709.5,123.5C 706.482,123.296 703.482,122.963 700.5,122.5C 699.705,118.215 699.372,113.881 699.5,109.5C 693.909,109.011 688.409,108.011 683,106.5C 682.167,106.833 681.333,107.167 680.5,107.5C 678.946,110.777 677.279,113.944 675.5,117C 672.518,117.498 669.518,117.665 666.5,117.5C 668.578,110.601 671.244,103.935 674.5,97.5C 674.5,97.1667 674.5,96.8333 674.5,96.5C 679.663,86.6803 684.997,76.847 690.5,67C 694.521,67.0349 698.521,67.5349 702.5,68.5C 702.808,72.3597 703.475,76.0264 704.5,79.5 Z"/></g>
<g><path style="opacity:0.004" fill="#fefffe" d="M 830.5,70.5 C 831.833,71.1667 831.833,71.1667 830.5,70.5 Z"/></g>
<g><path style="opacity:1" fill="#040e20" d="M 653.5,83.5 C 647.553,84.9523 641.386,86.2856 635,87.5C 634.027,85.6079 633.36,83.6079 633,81.5C 632.501,75.8431 632.334,70.1764 632.5,64.5C 629.833,64.5 627.167,64.5 624.5,64.5C 625.97,78.7901 626.637,93.1234 626.5,107.5C 626.167,107.5 625.833,107.5 625.5,107.5C 625.148,92.8166 624.482,78.1499 623.5,63.5C 627.167,63.5 630.833,63.5 634.5,63.5C 634.5,70.1667 634.5,76.8333 634.5,83.5C 640.833,83.5 647.167,83.5 653.5,83.5 Z"/></g>
<g><path style="opacity:0.004" fill="#fefffe" d="M 833.5,72.5 C 834.833,73.1667 834.833,73.1667 833.5,72.5 Z"/></g>
<g><path style="opacity:1" fill="#3480ba" d="M 767.5,56.5 C 785.43,64.1316 802.763,72.7982 819.5,82.5C 816.675,84.201 813.675,85.0343 810.5,85C 809.009,82.9031 808.009,80.5697 807.5,78C 804.717,77.0371 802.05,75.8704 799.5,74.5C 797.229,75.6565 794.895,76.1565 792.5,76C 789.232,74.1017 785.899,72.2683 782.5,70.5C 783.853,69.4763 784.52,68.143 784.5,66.5C 779.496,63.5416 774.163,61.0416 768.5,59C 767.748,58.3292 767.414,57.4959 767.5,56.5 Z"/></g>
<g><path style="opacity:0.004" fill="#fefffe" d="M 32.5,76.5 C 33.8333,77.1667 33.8333,77.1667 32.5,76.5 Z"/></g>
<g><path style="opacity:1" fill="#03060f" d="M 570.5,73.5 C 576.196,78.5682 578.029,84.9015 576,92.5C 573.833,96 571,98.8333 567.5,101C 569.407,102.122 571.407,102.955 573.5,103.5C 577.956,109.127 582.623,114.627 587.5,120C 583.928,121.48 580.262,122.146 576.5,122C 572.631,117.963 568.631,114.13 564.5,110.5C 561.553,105.601 557.386,104.267 552,106.5C 553.422,113.009 555.255,119.509 557.5,126C 557.355,126.772 557.022,127.439 556.5,128C 553.806,129.19 551.139,129.356 548.5,128.5C 543.171,112.528 537.838,96.5279 532.5,80.5C 534.416,78.6827 536.749,77.516 539.5,77C 544.833,75.6667 550.167,74.3333 555.5,73C 560.552,72.2742 565.552,72.4409 570.5,73.5 Z"/></g>
<g><path style="opacity:1" fill="#2975ac" d="M 600.5,111.5 C 601.8,114.024 601.8,116.691 600.5,119.5C 597.714,120.956 594.714,121.956 591.5,122.5C 603.305,124.919 603.305,125.753 591.5,125C 590,124.167 588.833,123 588,121.5C 583.674,123.314 579.174,123.814 574.5,123C 570.93,118.94 567.596,114.773 564.5,110.5C 568.631,114.13 572.631,117.963 576.5,122C 580.262,122.146 583.928,121.48 587.5,120C 582.623,114.627 577.956,109.127 573.5,103.5C 571.407,102.955 569.407,102.122 567.5,101C 571,98.8333 573.833,96 576,92.5C 578.029,84.9015 576.196,78.5682 570.5,73.5C 572.638,73.703 574.305,74.703 575.5,76.5C 577.098,75.5153 578.765,75.3486 580.5,76C 581.12,78.4728 581.786,80.9728 582.5,83.5C 582.833,82.6667 583.167,81.8333 583.5,81C 582.505,75.8689 581.838,70.7022 581.5,65.5C 584.898,65.8583 588.065,65.1916 591,63.5C 592.44,64.1476 593.94,64.4809 595.5,64.5C 597.628,80.1097 599.294,95.7764 600.5,111.5 Z"/></g>
<g><path style="opacity:1" fill="#030711" d="M 600.5,111.5 C 600.5,113.833 600.5,116.167 600.5,118.5C 597.545,119.159 594.545,119.492 591.5,119.5C 588.761,102.189 586.095,84.8552 583.5,67.5C 587.119,66.7564 590.785,66.423 594.5,66.5C 596.106,81.6899 598.106,96.6899 600.5,111.5 Z"/></g>
<g><path style="opacity:1" fill="#2e6fa0" d="M 654.5,63.5 C 654.609,70.1961 654.276,76.8627 653.5,83.5C 647.167,83.5 640.833,83.5 634.5,83.5C 634.5,76.8333 634.5,70.1667 634.5,63.5C 630.833,63.5 627.167,63.5 623.5,63.5C 624.482,78.1499 625.148,92.8166 625.5,107.5C 625.5,108.833 625.5,110.167 625.5,111.5C 623.961,105.068 623.128,98.401 623,91.5C 622.5,81.8391 622.334,72.1724 622.5,62.5C 626.833,62.5 631.167,62.5 635.5,62.5C 635.334,68.8421 635.5,75.1754 636,81.5C 641.407,82.4732 646.907,82.8066 652.5,82.5C 651.877,75.7453 652.544,69.412 654.5,63.5 Z"/></g>
<g><path style="opacity:1" fill="#2478b5" d="M 556.5,81.5 C 564.275,80.4419 567.442,83.7752 566,91.5C 560.716,94.9308 554.883,96.9308 548.5,97.5C 547.656,93.1259 546.656,88.7925 545.5,84.5C 549.427,84.0743 553.093,83.0743 556.5,81.5 Z"/></g>
<g><path style="opacity:1" fill="#2d70a4" d="M 693.5,80.5 C 695.57,86.5583 696.904,92.8916 697.5,99.5C 693.481,99.3542 689.481,99.0209 685.5,98.5C 687.614,92.2706 690.281,86.2706 693.5,80.5 Z"/></g>
<g><path style="opacity:1" fill="#03050e" d="M 807.5,125.5 C 803.997,134.623 797.997,141.79 789.5,147C 785.259,148.457 780.926,148.791 776.5,148C 772.183,146.063 767.85,144.23 763.5,142.5C 761.238,141.177 758.904,139.843 756.5,138.5C 761.846,125.812 767.179,113.145 772.5,100.5C 774.048,97.0326 775.882,93.6992 778,90.5C 785.68,93.5899 793.18,97.0899 800.5,101C 808.365,107.434 810.698,115.601 807.5,125.5 Z"/></g>
<g><path style="opacity:1" fill="#1e7bbe" d="M 573.5,103.5 C 572.588,102.262 572.421,100.928 573,99.5C 573.893,100.711 574.726,100.711 575.5,99.5C 578.097,96.3032 579.597,92.6366 580,88.5C 580.741,87.3595 581.575,87.3595 582.5,88.5C 583.192,87.9747 583.692,87.3081 584,86.5C 586.863,95.8706 588.03,105.537 587.5,115.5C 588.675,115.281 589.675,115.614 590.5,116.5C 586.428,117.102 584.428,115.102 584.5,110.5C 583.167,110.5 581.833,110.5 580.5,110.5C 579.793,106.629 577.46,104.295 573.5,103.5 Z"/></g>
<g><path style="opacity:0.004" fill="#fefffe" d="M 335.5,97.5 C 336.833,98.1667 336.833,98.1667 335.5,97.5 Z"/></g>
<g><path style="opacity:0.004" fill="#fefffe" d="M 83.5,101.5 C 84.8333,102.167 84.8333,102.167 83.5,101.5 Z"/></g>
<g><path style="opacity:1" fill="#03050f" d="M 762.5,84.5 C 762.833,84.5 763.167,84.5 763.5,84.5C 764.209,85.404 765.209,85.7373 766.5,85.5C 760.697,102.243 754.697,118.91 748.5,135.5C 745.402,134.784 742.402,133.784 739.5,132.5C 737.962,119.979 735.462,107.646 732,95.5C 728.535,105.691 725.535,116.025 723,126.5C 722.586,126.957 722.086,127.291 721.5,127.5C 719.271,126.423 716.937,125.756 714.5,125.5C 716.169,117.491 717.836,109.491 719.5,101.5C 722.706,92.8299 725.04,83.8299 726.5,74.5C 732.136,73.7524 736.303,75.7524 739,80.5C 741.653,91.7766 743.986,103.11 746,114.5C 749.86,104.588 753.527,94.5879 757,84.5C 758.776,83.4639 760.609,83.4639 762.5,84.5 Z"/></g>
<g><path style="opacity:0.004" fill="#fefffe" d="M 74.5,103.5 C 75.8333,104.167 75.8333,104.167 74.5,103.5 Z"/></g>
<g><path style="opacity:0.004" fill="#fefffe" d="M 311.5,106.5 C 312.833,107.167 312.833,107.167 311.5,106.5 Z"/></g>
<g><path style="opacity:1" fill="#14395a" d="M 651.5,93.5 C 646.167,93.5 640.833,93.5 635.5,93.5C 635.5,101.167 635.5,108.833 635.5,116.5C 632.167,116.5 628.833,116.5 625.5,116.5C 625.5,114.833 625.5,113.167 625.5,111.5C 625.5,110.167 625.5,108.833 625.5,107.5C 625.833,107.5 626.167,107.5 626.5,107.5C 626.5,110.167 626.5,112.833 626.5,115.5C 629.167,115.5 631.833,115.5 634.5,115.5C 634.5,107.833 634.5,100.167 634.5,92.5C 640.358,92.1778 646.025,92.5111 651.5,93.5 Z"/></g>
<g><path style="opacity:1" fill="#2776af" d="M 492.5,94.5 C 489.298,95.8622 486.298,97.6955 483.5,100C 487.911,107.989 491.911,116.156 495.5,124.5C 493.198,122.923 491.698,123.589 491,126.5C 490.605,124.821 490.772,123.155 491.5,121.5C 489.283,118.932 488.116,115.932 488,112.5C 487.15,114.01 486.317,115.51 485.5,117C 487.499,121.318 489.499,125.651 491.5,130C 490.833,131 490.167,132 489.5,133C 491.567,139.028 492.901,145.195 493.5,151.5C 487.861,135.862 483.028,119.862 479,103.5C 478.439,102.978 477.772,102.645 477,102.5C 474.568,103.966 472.068,105.299 469.5,106.5C 469.389,105.883 469.056,105.383 468.5,105C 471.023,104.482 473.023,103.148 474.5,101C 476.5,100.667 478.5,100.333 480.5,100C 480.839,96.3923 483.173,94.7257 487.5,95C 488.047,94.0754 488.713,93.2421 489.5,92.5C 490.265,93.6119 491.265,94.2786 492.5,94.5 Z"/></g>
<g><path style="opacity:0.004" fill="#fefffe" d="M 374.5,117.5 C 375.833,118.167 375.833,118.167 374.5,117.5 Z"/></g>
<g><path style="opacity:1" fill="#030711" d="M 495.5,124.5 C 491.911,116.156 487.911,107.989 483.5,100C 486.298,97.6955 489.298,95.8622 492.5,94.5C 498.241,105.651 503.741,116.984 509,128.5C 514.592,133.857 519.925,133.524 525,127.5C 525.167,126.333 525.333,125.167 525.5,124C 521.995,111.666 517.662,99.6657 512.5,88C 512.645,87.228 512.978,86.5613 513.5,86C 516.491,84.4775 519.491,83.9775 522.5,84.5C 528.345,97.8686 532.679,111.702 535.5,126C 532.953,136.525 526.12,142.025 515,142.5C 511.362,142.597 508.195,141.43 505.5,139C 501.774,134.361 498.44,129.528 495.5,124.5 Z"/></g>
<g><path style="opacity:1" fill="#2379b8" d="M 782.5,103.5 C 788.717,104.522 793.884,107.522 798,112.5C 797.872,122.594 794.039,131.094 786.5,138C 780.013,139.898 774.346,138.398 769.5,133.5C 773.828,123.509 778.162,113.509 782.5,103.5 Z"/></g>
<g><path style="opacity:1" fill="#03060f" d="M 493.5,151.5 C 493.719,152.675 493.386,153.675 492.5,154.5C 490.07,156.485 487.404,157.651 484.5,158C 475.944,149.108 467.11,140.608 458,132.5C 461.122,144.603 465.288,156.436 470.5,168C 467.667,170.167 464.833,172.333 462,174.5C 449.071,162.213 435.405,150.879 421,140.5C 422.881,137.127 425.714,134.46 429.5,132.5C 438.063,140.042 446.563,147.709 455,155.5C 450.933,144.339 447.1,133.006 443.5,121.5C 445.853,120.66 447.853,119.326 449.5,117.5C 451.494,116.65 453.494,116.15 455.5,116C 463.698,123.863 471.531,132.03 479,140.5C 478.134,133.069 475.967,126.069 472.5,119.5C 471.971,115.051 470.971,110.718 469.5,106.5C 472.068,105.299 474.568,103.966 477,102.5C 477.772,102.645 478.439,102.978 479,103.5C 483.028,119.862 487.861,135.862 493.5,151.5 Z"/></g>
<g><path style="opacity:1" fill="#03050e" d="M 844.5,141.5 C 840.169,154.452 835.669,167.452 831,180.5C 829.951,181.517 828.784,181.684 827.5,181C 825.677,180.003 824.01,178.836 822.5,177.5C 823.512,173.134 824.345,168.8 825,164.5C 820.923,161.212 816.756,158.045 812.5,155C 811.092,154.685 809.759,155.018 808.5,156C 805.986,158.415 803.319,160.581 800.5,162.5C 798.012,160.745 795.678,158.745 793.5,156.5C 801.585,149.071 809.918,142.071 818.5,135.5C 824.978,131.424 831.311,127.09 837.5,122.5C 841.146,124.482 844.146,127.149 846.5,130.5C 845.352,134.089 844.685,137.756 844.5,141.5 Z"/></g>
<g><path style="opacity:1" fill="#2c71a5" d="M 472.5,119.5 C 475.967,126.069 478.134,133.069 479,140.5C 471.531,132.03 463.698,123.863 455.5,116C 453.494,116.15 451.494,116.65 449.5,117.5C 453.163,113.52 456.996,113.52 461,117.5C 463.453,113.731 463.953,114.231 462.5,119C 464.086,122.585 466.419,125.585 469.5,128C 470.793,128.49 472.127,128.657 473.5,128.5C 473.296,125.482 472.963,122.482 472.5,119.5 Z"/></g>
<g><path style="opacity:1" fill="#2577b3" d="M 763.5,84.5 C 764.833,84.5 766.167,84.5 767.5,84.5C 767.314,89.9825 766.314,95.3158 764.5,100.5C 764.511,103.845 766.178,105.511 769.5,105.5C 769.259,102.966 770.259,101.3 772.5,100.5C 767.179,113.145 761.846,125.812 756.5,138.5C 758.904,139.843 761.238,141.177 763.5,142.5C 761.533,142.261 759.699,142.594 758,143.5C 756.181,140.194 753.681,137.527 750.5,135.5C 747.497,136.085 744.497,136.752 741.5,137.5C 742.833,138.62 743.333,139.953 743,141.5C 740.699,140.133 738.199,139.466 735.5,139.5C 735.105,136.477 736.105,135.477 738.5,136.5C 740.7,135.675 741.034,134.342 739.5,132.5C 742.402,133.784 745.402,134.784 748.5,135.5C 754.697,118.91 760.697,102.243 766.5,85.5C 765.209,85.7373 764.209,85.404 763.5,84.5 Z"/></g>
<g><path style="opacity:1" fill="#2875ae" d="M 664.5,63.5 C 664.988,78.9978 665.155,94.6645 665,110.5C 668.304,107.56 670.304,103.893 671,99.5C 671.816,98.1772 672.983,97.5106 674.5,97.5C 671.244,103.935 668.578,110.601 666.5,117.5C 669.518,117.665 672.518,117.498 675.5,117C 677.279,113.944 678.946,110.777 680.5,107.5C 681.333,107.167 682.167,106.833 683,106.5C 688.409,108.011 693.909,109.011 699.5,109.5C 699.372,113.881 699.705,118.215 700.5,122.5C 703.482,122.963 706.482,123.296 709.5,123.5C 709.631,124.376 709.298,125.043 708.5,125.5C 705.579,124.593 702.579,124.26 699.5,124.5C 698.182,120.075 697.182,115.575 696.5,111C 695.365,110.251 694.365,110.417 693.5,111.5C 695.536,114.459 695.37,117.459 693,120.5C 692.121,117.182 691.287,113.848 690.5,110.5C 689.833,112.5 689.167,114.5 688.5,116.5C 688.285,111.389 685.618,109.056 680.5,109.5C 679.118,118.163 674.118,120.996 665.5,118C 664.975,117.308 664.308,116.808 663.5,116.5C 662.605,118.307 661.272,119.64 659.5,120.5C 656.61,119.315 653.776,119.315 651,120.5C 650.184,111.921 650.351,103.421 651.5,95C 646.582,95.102 641.582,94.9353 636.5,94.5C 636.17,100.868 636.504,107.202 637.5,113.5C 642.686,118.154 642.019,121.987 635.5,125C 636.793,125.49 638.127,125.657 639.5,125.5C 639.343,126.873 639.51,128.207 640,129.5C 641.887,127.974 642.887,125.974 643,123.5C 646.132,125.783 646.299,128.283 643.5,131C 644.51,135.634 645.51,135.634 646.5,131C 647.448,130.517 648.448,130.351 649.5,130.5C 649.978,133.278 648.978,135.278 646.5,136.5C 648.195,139.841 650.861,142.841 654.5,145.5C 656.707,147.683 659.374,149.016 662.5,149.5C 664.167,151.167 665.833,152.833 667.5,154.5C 668.208,152.255 669.208,150.255 670.5,148.5C 669.955,151.813 669.455,155.146 669,158.5C 662.782,153.281 656.282,148.448 649.5,144C 645.578,140.749 642.412,136.916 640,132.5C 638.274,131.424 636.441,131.257 634.5,132C 631.606,136.663 627.94,140.497 623.5,143.5C 625.17,140.168 627.337,137.168 630,134.5C 631.426,131.931 631.259,129.764 629.5,128C 630.636,126.47 631.636,125.137 632.5,124C 631.833,123.667 631.167,123.333 630.5,123C 633.821,122.187 636.821,120.687 639.5,118.5C 634.683,117.833 630.017,117.166 625.5,116.5C 628.833,116.5 632.167,116.5 635.5,116.5C 635.5,108.833 635.5,101.167 635.5,93.5C 640.833,93.5 646.167,93.5 651.5,93.5C 652.167,93.5 652.833,93.5 653.5,93.5C 652.642,101.132 652.309,108.799 652.5,116.5C 655.5,116.5 658.5,116.5 661.5,116.5C 661.5,113.5 661.5,110.5 661.5,107.5C 663.023,92.9213 664.023,78.2546 664.5,63.5 Z"/></g>
<g><path style="opacity:1" fill="#051024" d="M 653.5,93.5 C 654.491,100.313 654.825,107.313 654.5,114.5C 656.5,114.5 658.5,114.5 660.5,114.5C 660.198,111.941 660.532,109.607 661.5,107.5C 661.5,110.5 661.5,113.5 661.5,116.5C 658.5,116.5 655.5,116.5 652.5,116.5C 652.309,108.799 652.642,101.132 653.5,93.5 Z"/></g>
<g><path style="opacity:0.004" fill="#fefffe" d="M 239.5,137.5 C 240.833,138.167 240.833,138.167 239.5,137.5 Z"/></g>
<g><path style="opacity:1" fill="#03050e" d="M 895.5,171.5 C 884.822,174.525 873.822,177.358 862.5,180C 856.324,185.01 850.657,190.51 845.5,196.5C 843.476,194.642 841.309,192.975 839,191.5C 838.7,189.934 839.2,188.601 840.5,187.5C 844.801,183.028 848.968,178.361 853,173.5C 855.483,161.936 857.316,150.269 858.5,138.5C 862.482,140.817 865.815,143.817 868.5,147.5C 867.479,154.063 866.146,160.563 864.5,167C 864.833,167.833 865.167,168.667 865.5,169.5C 872.101,167.3 878.768,165.3 885.5,163.5C 889.115,165.778 892.448,168.445 895.5,171.5 Z"/></g>
<g><path style="opacity:1" fill="#2b74ac" d="M 832.5,137.5 C 833.613,138.946 833.78,140.613 833,142.5C 831.597,146.876 830.097,151.21 828.5,155.5C 825.319,153.408 822.319,151.075 819.5,148.5C 823.559,144.435 827.893,140.768 832.5,137.5 Z"/></g>
<g><path style="opacity:1" fill="#2c72a6" d="M 443.5,121.5 C 447.1,133.006 450.933,144.339 455,155.5C 446.563,147.709 438.063,140.042 429.5,132.5C 431.722,132.822 433.556,132.155 435,130.5C 436.174,132.671 438.007,133.671 440.5,133.5C 440.773,135.451 440.107,136.951 438.5,138C 440.97,141.727 444.303,144.227 448.5,145.5C 448.5,143.833 448.5,142.167 448.5,140.5C 446.774,140.815 445.107,140.981 443.5,141C 443.043,140.586 442.709,140.086 442.5,139.5C 443.689,138.571 445.022,138.238 446.5,138.5C 445.43,133.509 444.097,128.509 442.5,123.5C 442.543,122.584 442.876,121.917 443.5,121.5 Z"/></g>
<g><path style="opacity:1" fill="#2974ac" d="M 807.5,125.5 C 807.662,127.527 807.495,129.527 807,131.5C 804.791,134.786 802.958,138.286 801.5,142C 803.645,145.294 804.979,145.128 805.5,141.5C 809.385,141.22 812.385,139.386 814.5,136C 815.793,135.51 817.127,135.343 818.5,135.5C 809.918,142.071 801.585,149.071 793.5,156.5C 795.678,158.745 798.012,160.745 800.5,162.5C 796.241,162.668 793.574,160.668 792.5,156.5C 794.326,154.651 794.659,152.651 793.5,150.5C 787.528,149.67 781.528,149.17 775.5,149C 773.028,147.54 770.361,146.54 767.5,146C 765.681,145.26 764.348,144.093 763.5,142.5C 767.85,144.23 772.183,146.063 776.5,148C 780.926,148.791 785.259,148.457 789.5,147C 797.997,141.79 803.997,134.623 807.5,125.5 Z"/></g>
<g><path style="opacity:1" fill="#2c73a5" d="M 615.5,149.5 C 611.9,151.92 608.4,154.586 605,157.5C 603.847,154.644 603.014,151.644 602.5,148.5C 600.926,147.369 599.259,147.202 597.5,148C 590.172,156.824 581.505,163.991 571.5,169.5C 571.703,167.956 572.37,166.622 573.5,165.5C 576.463,164.033 579.297,162.366 582,160.5C 582.536,158.433 582.036,156.599 580.5,155C 582.594,156.094 584.927,156.428 587.5,156C 589.572,154.727 590.905,152.893 591.5,150.5C 592.325,149.614 593.325,149.281 594.5,149.5C 594.5,148.167 594.5,146.833 594.5,145.5C 601.338,144.068 605.005,146.735 605.5,153.5C 608.084,153.431 610.084,152.265 611.5,150C 612.793,149.51 614.127,149.343 615.5,149.5 Z"/></g>
<g><path style="opacity:0.004" fill="#fefffe" d="M 251.5,163.5 C 252.833,164.167 252.833,164.167 251.5,163.5 Z"/></g>
<g><path style="opacity:1" fill="#04060e" d="M 406.5,179.5 C 413.528,187.738 421.195,195.571 429.5,203C 427.317,205.35 424.984,207.517 422.5,209.5C 411.833,199.833 401.167,190.167 390.5,180.5C 386.843,184.327 383.343,188.327 380,192.5C 378.457,190.622 376.624,189.122 374.5,188C 373.483,186.951 373.316,185.784 374,184.5C 380.042,177.962 385.875,171.295 391.5,164.5C 395.757,161.749 399.59,158.416 403,154.5C 405.167,156.667 407.333,158.833 409.5,161C 405.833,164.667 402.167,168.333 398.5,172C 401.036,174.705 403.703,177.205 406.5,179.5 Z"/></g>
<g><path style="opacity:0.004" fill="#fefffe" d="M 113.5,167.5 C 114.833,168.167 114.833,168.167 113.5,167.5 Z"/></g>
<g><path style="opacity:1" fill="#2776af" d="M 895.5,171.5 C 892.448,168.445 889.115,165.778 885.5,163.5C 878.768,165.3 872.101,167.3 865.5,169.5C 865.167,168.667 864.833,167.833 864.5,167C 866.146,160.563 867.479,154.063 868.5,147.5C 865.815,143.817 862.482,140.817 858.5,138.5C 857.316,150.269 855.483,161.936 853,173.5C 848.968,178.361 844.801,183.028 840.5,187.5C 840.806,184.722 841.806,182.222 843.5,180C 842.975,177.313 842.975,174.48 843.5,171.5C 842.178,171.33 841.011,171.663 840,172.5C 839.759,175.289 839.092,177.956 838,180.5C 834.945,177.642 832.778,178.309 831.5,182.5C 828.093,182.793 825.26,184.127 823,186.5C 820.33,185.776 818.83,184.109 818.5,181.5C 819.833,181.5 821.167,181.5 822.5,181.5C 822.5,180.167 822.5,178.833 822.5,177.5C 824.01,178.836 825.677,180.003 827.5,181C 828.784,181.684 829.951,181.517 831,180.5C 835.669,167.452 840.169,154.452 844.5,141.5C 843.171,148.46 841.837,155.46 840.5,162.5C 840.229,164.921 840.895,165.587 842.5,164.5C 843.228,167.212 844.061,169.879 845,172.5C 846.399,172.501 847.899,172.835 849.5,173.5C 850.971,172.619 851.804,171.286 852,169.5C 852.61,162.654 853.943,155.987 856,149.5C 856.499,145.514 856.666,141.514 856.5,137.5C 860.934,138.164 865.1,138.83 869,139.5C 869.609,146.189 869.443,152.856 868.5,159.5C 869.5,159.5 870.5,159.5 871.5,159.5C 871.238,158.022 871.571,156.689 872.5,155.5C 872.833,156.167 873.167,156.833 873.5,157.5C 872.349,159.325 871.682,161.325 871.5,163.5C 869.833,163.5 868.167,163.5 866.5,163.5C 866.281,164.675 866.614,165.675 867.5,166.5C 873.444,164.273 879.611,162.607 886,161.5C 890.295,163.755 893.462,167.088 895.5,171.5 Z"/></g>
<g><path style="opacity:0.004" fill="#fefffe" d="M 191.5,178.5 C 192.833,179.167 192.833,179.167 191.5,178.5 Z"/></g>
<g><path style="opacity:1" fill="#2478b5" d="M 391.5,164.5 C 385.875,171.295 380.042,177.962 374,184.5C 373.316,185.784 373.483,186.951 374.5,188C 376.624,189.122 378.457,190.622 380,192.5C 383.343,188.327 386.843,184.327 390.5,180.5C 401.167,190.167 411.833,199.833 422.5,209.5C 424.984,207.517 427.317,205.35 429.5,203C 421.195,195.571 413.528,187.738 406.5,179.5C 410.915,182.733 415.249,186.233 419.5,190C 421.935,190.853 424.269,191.853 426.5,193C 423.131,194.29 423.465,195.79 427.5,197.5C 428.429,196.311 428.762,194.978 428.5,193.5C 429.5,193.5 430.5,193.5 431.5,193.5C 431.679,195.954 431.013,198.121 429.5,200C 430.773,202.516 430.773,205.016 429.5,207.5C 431.762,209.508 431.262,209.841 428,208.5C 425.251,212.251 421.751,213.251 417.5,211.5C 416.006,211.709 414.839,212.376 414,213.5C 414.135,210.062 412.968,207.228 410.5,205C 410.833,204.667 411.167,204.333 411.5,204C 409.497,199.699 406.164,196.865 401.5,195.5C 401.12,197.021 400.954,198.687 401,200.5C 397.747,198.457 394.58,196.29 391.5,194C 390.056,193.219 388.723,193.386 387.5,194.5C 389.507,196.008 391.174,197.842 392.5,200C 394.345,201.128 396.345,201.628 398.5,201.5C 398.643,203.262 398.309,204.929 397.5,206.5C 399.65,208.149 401.65,209.982 403.5,212C 401.876,213.117 400.876,214.617 400.5,216.5C 405.288,223.305 407.455,230.971 407,239.5C 406.667,239.167 406.333,238.833 406,238.5C 405.421,241.588 404.087,244.255 402,246.5C 400.951,245.483 399.784,245.316 398.5,246C 396.833,247.667 395.167,249.333 393.5,251C 391.19,251.497 388.857,251.663 386.5,251.5C 397.61,245.949 403.11,236.949 403,224.5C 401.224,221.059 399.057,217.892 396.5,215C 386.939,207.261 377.272,199.761 367.5,192.5C 369.953,188.51 372.286,184.343 374.5,180C 377.619,177.73 379.119,174.563 379,170.5C 380.667,169.167 382.333,169.167 384,170.5C 385.487,169.747 385.654,168.914 384.5,168C 385.793,167.51 387.127,167.343 388.5,167.5C 388.5,166.5 388.5,165.5 388.5,164.5C 389.5,164.5 390.5,164.5 391.5,164.5 Z"/></g>
<g><path style="opacity:0.004" fill="#fefffe" d="M 1097.5,194.5 C 1098.83,195.167 1098.83,195.167 1097.5,194.5 Z"/></g>
<g><path style="opacity:1" fill="#03050e" d="M 902.5,183.5 C 908.05,185.21 911.217,188.877 912,194.5C 903.587,211.004 893.92,226.67 883,241.5C 881.151,238.462 879.318,235.462 877.5,232.5C 879.278,228.885 881.278,225.385 883.5,222C 880.229,217.057 876.562,212.391 872.5,208C 871.167,207.333 869.833,207.333 868.5,208C 865.945,209.444 863.279,210.611 860.5,211.5C 857.861,209.527 855.527,207.194 853.5,204.5C 869.544,196.64 885.878,189.64 902.5,183.5 Z"/></g>
<g><path style="opacity:1" fill="#2c73aa" d="M 896.5,196.5 C 897.376,196.369 898.043,196.702 898.5,197.5C 895.532,202.964 892.366,208.297 889,213.5C 885.822,210.18 883.322,206.513 881.5,202.5C 886.67,200.742 891.67,198.742 896.5,196.5 Z"/></g>
<g><path style="opacity:1" fill="#03050c" d="M 943.5,248.5 C 945.142,247.133 946.808,246.799 948.5,247.5C 950.051,249.884 951.385,252.384 952.5,255C 952.355,255.772 952.022,256.439 951.5,257C 936.5,264.5 921.5,272 906.5,279.5C 905.265,278.66 904.265,277.66 903.5,276.5C 902.986,274.634 902.32,272.8 901.5,271C 901.989,269.862 902.322,268.695 902.5,267.5C 909.348,257.469 914.848,246.802 919,235.5C 911.98,240.078 905.147,244.744 898.5,249.5C 896.059,250.557 893.725,251.89 891.5,253.5C 889.768,251.717 888.268,249.717 887,247.5C 886.251,246.365 886.417,245.365 887.5,244.5C 901.5,235.167 915.5,225.833 929.5,216.5C 932.978,219.456 934.811,223.122 935,227.5C 930.35,238.965 924.85,249.965 918.5,260.5C 918.833,260.833 919.167,261.167 919.5,261.5C 927.527,257.154 935.527,252.821 943.5,248.5 Z"/></g>
<g><path style="opacity:1" fill="#03050e" d="M 367.5,192.5 C 377.272,199.761 386.939,207.261 396.5,215C 399.057,217.892 401.224,221.059 403,224.5C 403.11,236.949 397.61,245.949 386.5,251.5C 386.167,251.5 385.833,251.5 385.5,251.5C 378.637,251.078 372.304,248.911 366.5,245C 359,240.082 351.333,235.416 343.5,231C 342.587,229.586 342.587,228.086 343.5,226.5C 345.39,224.41 347.057,222.077 348.5,219.5C 358.997,226.583 369.664,233.416 380.5,240C 386.848,241.24 391.014,238.74 393,232.5C 393.667,230.5 393.667,228.5 393,226.5C 382.48,217.976 371.98,209.476 361.5,201C 363.705,198.298 365.705,195.464 367.5,192.5 Z"/></g>
<g><path style="opacity:1" fill="#2875ae" d="M 343.5,226.5 C 342.587,228.086 342.587,229.586 343.5,231C 351.333,235.416 359,240.082 366.5,245C 372.304,248.911 378.637,251.078 385.5,251.5C 382.696,252.638 379.696,252.805 376.5,252C 369.378,248.023 362.211,244.19 355,240.5C 354.5,240.833 354,241.167 353.5,241.5C 354.5,242.333 355.5,243.167 356.5,244C 354.538,243.859 352.704,244.026 351,244.5C 350.5,244.167 350,243.833 349.5,243.5C 350.648,241.851 351.981,240.351 353.5,239C 351.179,238.163 348.845,237.83 346.5,238C 347.576,239.726 347.743,241.559 347,243.5C 344.849,246.99 342.682,250.49 340.5,254C 340.978,255.303 341.645,256.469 342.5,257.5C 340.689,257.428 339.356,256.595 338.5,255C 340.907,250.187 343.573,245.52 346.5,241C 344.067,239.368 341.567,237.868 339,236.5C 337.989,237.056 337.156,237.722 336.5,238.5C 337.038,235.435 337.038,232.435 336.5,229.5C 337.826,228.01 339.326,226.676 341,225.5C 341.671,226.252 342.504,226.586 343.5,226.5 Z"/></g>
<g><path style="opacity:1" fill="#03050f" d="M 342.5,257.5 C 354.129,263.314 365.462,269.648 376.5,276.5C 374.984,279.531 373.484,282.531 372,285.5C 359.121,279.31 346.287,272.977 333.5,266.5C 330.302,271.563 327.635,276.897 325.5,282.5C 322.499,281.457 319.832,279.957 317.5,278C 318.32,276.2 318.986,274.366 319.5,272.5C 324.354,261.127 330.02,250.127 336.5,239.5C 336.5,239.167 336.5,238.833 336.5,238.5C 337.156,237.722 337.989,237.056 339,236.5C 341.567,237.868 344.067,239.368 346.5,241C 343.573,245.52 340.907,250.187 338.5,255C 339.356,256.595 340.689,257.428 342.5,257.5 Z"/></g>
<g><path style="opacity:1" fill="#2c73a7" d="M 902.5,267.5 C 902.201,265.396 902.534,263.396 903.5,261.5C 907.404,256.276 910.404,250.609 912.5,244.5C 907.659,245.923 902.992,247.589 898.5,249.5C 905.147,244.744 911.98,240.078 919,235.5C 914.848,246.802 909.348,257.469 902.5,267.5 Z"/></g>
<g><path style="opacity:1" fill="#08090c" d="M 670.5,148.5 C 672.468,147.181 674.468,147.181 676.5,148.5C 684.122,156.958 692.789,164.124 702.5,170C 708.772,175.388 713.438,181.888 716.5,189.5C 724.982,183.835 733.982,183.001 743.5,187C 756.667,194.749 769.667,202.749 782.5,211C 784.607,212.264 785.607,214.097 785.5,216.5C 777.505,215.81 769.505,215.643 761.5,216C 759.509,216.374 757.842,217.207 756.5,218.5C 753.572,219.591 751.406,221.591 750,224.5C 748.47,228.09 747.136,231.757 746,235.5C 741.499,258.183 736.999,280.85 732.5,303.5C 723.474,344.457 714.807,385.624 706.5,427C 706.519,428.833 707.185,430.333 708.5,431.5C 714.795,442.667 718.628,454.667 720,467.5C 720.168,477.517 720.668,487.517 721.5,497.5C 739.495,483.173 744.495,465.173 736.5,443.5C 735.392,435.185 734.392,426.852 733.5,418.5C 733.273,402.088 740.94,391.755 756.5,387.5C 771.091,386.647 785.425,388.147 799.5,392C 821.446,399.148 843.113,406.981 864.5,415.5C 874.99,421.454 886.323,423.954 898.5,423C 910.038,419.583 915.038,411.75 913.5,399.5C 913.134,390.974 911.801,382.641 909.5,374.5C 905.441,354.36 903.607,334.027 904,313.5C 905.667,312.167 907.333,312.167 909,313.5C 918.366,335.904 929.533,357.237 942.5,377.5C 945.502,383.505 948.502,389.505 951.5,395.5C 961.71,413.186 963.877,431.853 958,451.5C 956.067,455.917 953.567,459.917 950.5,463.5C 949.21,464.058 948.377,465.058 948,466.5C 948,485.006 942.166,501.34 930.5,515.5C 931.854,522.569 931.521,529.569 929.5,536.5C 925.238,544.659 919.738,551.993 913,558.5C 912.536,567.559 909.869,575.892 905,583.5C 899.969,589.697 894.469,595.364 888.5,600.5C 887.504,600.414 886.671,600.748 886,601.5C 879.917,626.085 864.417,640.418 839.5,644.5C 837.533,644.739 835.699,644.406 834,643.5C 828.118,645.876 821.951,646.876 815.5,646.5C 803.511,645.757 791.511,645.423 779.5,645.5C 751.12,641.53 723.62,634.197 697,623.5C 692.368,626.304 688.201,629.637 684.5,633.5C 678.222,637.311 671.889,641.144 665.5,645C 673.853,642.367 682.52,640.867 691.5,640.5C 706.256,639.983 720.923,640.65 735.5,642.5C 748.962,646.567 761.962,651.733 774.5,658C 784.881,661.543 795.548,663.543 806.5,664C 807.609,665.876 808.609,667.709 809.5,669.5C 811.379,681.35 814.046,693.017 817.5,704.5C 818.707,708.786 819.707,713.12 820.5,717.5C 823.817,717.157 826.151,718.491 827.5,721.5C 825.674,724.482 824.341,727.648 823.5,731C 818.167,731.667 812.833,731.667 807.5,731C 797.932,728.596 788.266,726.763 778.5,725.5C 763.574,719.912 748.574,714.412 733.5,709C 720.052,704.637 706.386,703.637 692.5,706C 680.038,709.932 667.705,714.265 655.5,719C 645.012,722.677 634.345,723.344 623.5,721C 610.374,715.791 597.041,711.291 583.5,707.5C 564.288,702.352 545.621,704.019 527.5,712.5C 512.798,718.9 497.798,724.4 482.5,729C 471.016,731.929 459.349,733.096 447.5,732.5C 447.018,728.551 446.018,724.717 444.5,721C 448.607,716.626 452.107,711.793 455,706.5C 459.374,693.799 462.54,680.799 464.5,667.5C 465.249,666.469 465.915,665.302 466.5,664C 473.833,663.667 481.167,663.333 488.5,663C 505.065,659.029 521.065,653.529 536.5,646.5C 553.509,641.567 570.843,640.234 588.5,642.5C 595.961,643.372 603.294,644.539 610.5,646C 605.148,643.661 600.148,640.828 595.5,637.5C 595.167,637.5 594.833,637.5 594.5,637.5C 588.76,632.259 582.593,627.592 576,623.5C 564.442,627.629 552.942,631.629 541.5,635.5C 541.167,635.5 540.833,635.5 540.5,635.5C 510.206,644.826 479.206,648.826 447.5,647.5C 427.265,646.296 410.432,638.296 397,623.5C 393.35,617.867 390.517,611.867 388.5,605.5C 388.762,604.022 388.429,602.689 387.5,601.5C 375.864,593.542 367.198,583.208 361.5,570.5C 361.142,566.491 360.642,562.491 360,558.5C 359.617,557.944 359.117,557.611 358.5,557.5C 353.408,551.24 348.908,544.573 345,537.5C 342.91,530.009 341.91,522.343 342,514.5C 340.303,511.98 338.47,509.647 336.5,507.5C 335.921,504.669 334.588,502.336 332.5,500.5C 328.114,489.615 325.947,478.282 326,466.5C 318.439,459.047 313.773,450.047 312,439.5C 311.268,431.746 311.768,424.08 313.5,416.5C 314.997,411.179 316.83,405.846 319,400.5C 330.399,379.371 342.065,358.371 354,337.5C 357.597,329.541 361.097,321.541 364.5,313.5C 366.611,312.152 368.445,312.485 370,314.5C 370.363,324.171 370.196,333.838 369.5,343.5C 365.933,361.677 362.6,380.011 359.5,398.5C 359.084,407.427 362.084,414.927 368.5,421C 370.154,421.608 371.821,422.108 373.5,422.5C 381.996,424.041 390.33,423.207 398.5,420C 426.051,407.553 454.385,397.386 483.5,389.5C 495.798,387.118 508.131,386.951 520.5,389C 528.838,391.508 534.838,396.674 538.5,404.5C 539.514,413.477 539.681,422.477 539,431.5C 535.036,445.251 533.702,459.251 535,473.5C 537.673,483.354 543.173,491.188 551.5,497C 552.816,497.528 553.483,497.028 553.5,495.5C 554.239,484.314 555.073,472.981 556,461.5C 557.016,460.366 557.683,460.699 558,462.5C 557.408,457.195 558.575,452.195 561.5,447.5C 562.5,447 563.5,446.5 564.5,446C 561.683,442.94 561.85,440.107 565,437.5C 565.98,439.059 566.813,440.726 567.5,442.5C 568.183,442.137 568.85,441.804 569.5,441.5C 565.434,451.43 563.101,461.763 562.5,472.5C 561.203,474.693 561.203,477.027 562.5,479.5C 563.107,479.376 563.44,479.043 563.5,478.5C 575.5,463.663 587.333,448.663 599,433.5C 605.461,422.316 608.795,410.316 609,397.5C 593.502,408.16 581.002,421.493 571.5,437.5C 569.57,436.237 567.903,434.57 566.5,432.5C 567.969,430.808 568.635,428.808 568.5,426.5C 567.629,420.811 566.629,415.144 565.5,409.5C 565.608,408.558 565.941,407.725 566.5,407C 565.584,406.626 564.75,406.126 564,405.5C 563.827,401.459 563.327,397.459 562.5,393.5C 561.817,393.137 561.15,392.804 560.5,392.5C 557.83,381.822 555.164,371.155 552.5,360.5C 545.998,326.822 539.498,293.155 533,259.5C 530.427,248.07 527.427,236.737 524,225.5C 519.516,217.509 512.683,214.175 503.5,215.5C 498.491,215.792 493.491,216.126 488.5,216.5C 488.178,214.278 488.845,212.444 490.5,211C 503.833,203 517.167,195 530.5,187C 539.949,183.078 548.949,183.912 557.5,189.5C 560.242,181.435 564.909,174.768 571.5,169.5C 581.505,163.991 590.172,156.824 597.5,148C 599.259,147.202 600.926,147.369 602.5,148.5C 603.014,151.644 603.847,154.644 605,157.5C 608.4,154.586 611.9,151.92 615.5,149.5C 618.473,147.853 621.14,145.853 623.5,143.5C 627.94,140.497 631.606,136.663 634.5,132C 636.441,131.257 638.274,131.424 640,132.5C 642.412,136.916 645.578,140.749 649.5,144C 656.282,148.448 662.782,153.281 669,158.5C 669.455,155.146 669.955,151.813 670.5,148.5 Z"/></g>
<g><path style="opacity:1" fill="#fcfcfc" d="M 636.5,143.5 C 642.701,150.192 649.701,156.026 657.5,161C 660.704,163.869 663.537,167.035 666,170.5C 666.667,177.167 666.667,183.833 666,190.5C 663.29,220.013 660.457,249.513 657.5,279C 657.667,281.5 657.833,284 658,286.5C 659.523,288.62 661.356,288.953 663.5,287.5C 664.934,285.78 665.767,283.78 666,281.5C 669.505,242.435 673.505,203.435 678,164.5C 686.546,170.111 694.546,176.444 702,183.5C 706.265,189.502 707.598,196.169 706,203.5C 700.162,236.208 694.162,268.874 688,301.5C 686.996,304.993 687.496,308.159 689.5,311C 692.804,312.042 694.971,310.875 696,307.5C 701.584,272.994 707.917,238.66 715,204.5C 724.134,194.233 734.634,192.733 746.5,200C 751.008,202.753 755.341,205.753 759.5,209C 747.515,212.322 740.349,220.155 738,232.5C 725.216,294.536 712.216,356.536 699,418.5C 688.856,406.687 677.189,396.687 664,388.5C 663.333,377.833 663.333,367.167 664,356.5C 668.373,343.521 667.04,331.188 660,319.5C 654.42,312.008 649.087,304.341 644,296.5C 641.407,291.465 639.741,286.132 639,280.5C 637.333,276.5 635.667,276.5 634,280.5C 633.418,286.495 631.752,292.162 629,297.5C 620.483,307.861 613.483,319.195 608,331.5C 605.658,340.083 606.324,348.417 610,356.5C 610.903,367.226 610.569,377.893 609,388.5C 595.5,396.661 583.833,406.994 574,419.5C 561.478,356.412 548.478,293.412 535,230.5C 532.005,219.456 525.172,212.123 514.5,208.5C 521.328,202.849 528.995,198.683 537.5,196C 545.586,194.955 552.42,197.455 558,203.5C 565.312,238.338 571.979,273.338 578,308.5C 582.041,312.948 584.874,312.281 586.5,306.5C 580.223,273.171 574.057,239.838 568,206.5C 567.333,200.833 567.333,195.167 568,189.5C 569.586,186.081 571.752,183.081 574.5,180.5C 581.32,174.924 588.32,169.591 595.5,164.5C 599.93,204.799 604.097,245.132 608,285.5C 610.667,289.5 613.333,289.5 616,285.5C 613.766,252.794 610.766,220.128 607,187.5C 605.859,180.916 606.526,174.583 609,168.5C 614.62,161.873 621.12,156.373 628.5,152C 631.371,149.297 634.038,146.464 636.5,143.5 Z"/></g>
<g><path style="opacity:0.004" fill="#fefffe" d="M 176.5,253.5 C 177.833,254.167 177.833,254.167 176.5,253.5 Z"/></g>
<g><path style="opacity:1" fill="#2d72a0" d="M 336.5,239.5 C 330.02,250.127 324.354,261.127 319.5,272.5C 322.797,261.288 327.464,250.622 333.5,240.5C 334.417,239.873 335.417,239.539 336.5,239.5 Z"/></g>
<g><path style="opacity:0.004" fill="#fefffe" d="M 86.5,259.5 C 87.8333,260.167 87.8333,260.167 86.5,259.5 Z"/></g>
<g><path style="opacity:1" fill="#040610" d="M 948.5,285.5 C 943.533,286.988 938.866,288.988 934.5,291.5C 928.24,293.532 922.074,295.865 916,298.5C 912.893,295.961 911.06,292.627 910.5,288.5C 926.453,282.006 942.287,275.006 958,267.5C 961.134,271.055 962.301,275.055 961.5,279.5C 957.064,281.522 952.731,283.522 948.5,285.5 Z"/></g>
<g><path style="opacity:1" fill="#4184b8" d="M 991.5,239.5 C 1003.15,254.127 1013.82,269.46 1023.5,285.5C 1020.41,282.936 1017.74,279.936 1015.5,276.5C 1013.99,275.253 1012.49,275.253 1011,276.5C 1010.21,274.099 1009.04,271.932 1007.5,270C 1010.49,266.792 1009.82,264.959 1005.5,264.5C 1004.82,260.678 1002.49,259.011 998.5,259.5C 998.5,257.167 998.5,254.833 998.5,252.5C 997.178,252.67 996.011,252.337 995,251.5C 994.076,247.349 992.909,243.349 991.5,239.5 Z"/></g>
<g><path style="opacity:1" fill="#2577b3" d="M 948.5,285.5 C 952.731,283.522 957.064,281.522 961.5,279.5C 962.301,275.055 961.134,271.055 958,267.5C 942.287,275.006 926.453,282.006 910.5,288.5C 911.06,292.627 912.893,295.961 916,298.5C 922.074,295.865 928.24,293.532 934.5,291.5C 934.5,292.5 934.5,293.5 934.5,294.5C 928.948,295.071 923.615,296.571 918.5,299C 913.225,300.075 910.059,297.908 909,292.5C 908.333,289.5 908.333,286.5 909,283.5C 909.414,283.043 909.914,282.709 910.5,282.5C 911.216,283.311 912.05,283.978 913,284.5C 913.349,283.527 914.182,282.694 915.5,282C 913.579,281.64 911.912,280.806 910.5,279.5C 905.303,284.333 902.969,283.333 903.5,276.5C 904.265,277.66 905.265,278.66 906.5,279.5C 921.5,272 936.5,264.5 951.5,257C 952.022,256.439 952.355,255.772 952.5,255C 951.385,252.384 950.051,249.884 948.5,247.5C 946.808,246.799 945.142,247.133 943.5,248.5C 944.014,246.561 945.347,245.561 947.5,245.5C 951.964,248.282 953.797,252.282 953,257.5C 946.52,261.028 947.02,262.862 954.5,263C 953.284,264.74 951.618,265.74 949.5,266C 950.263,266.944 951.263,267.444 952.5,267.5C 956.537,266.859 960.037,265.859 963,264.5C 964.633,267.14 964.467,269.807 962.5,272.5C 964.044,273.622 965.377,273.289 966.5,271.5C 967.795,275.38 967.795,279.214 966.5,283C 964.888,283.72 963.388,283.554 962,282.5C 957.535,283.648 953.035,284.648 948.5,285.5 Z"/></g>
<g><path style="opacity:1" fill="#2c6e9e" d="M 756.5,218.5 C 755.962,220.117 755.629,221.784 755.5,223.5C 754.325,223.281 753.325,223.614 752.5,224.5C 751.917,226.002 751.084,227.335 750,228.5C 746.803,240.43 743.803,252.43 741,264.5C 739.404,275.415 737.737,286.415 736,297.5C 734.918,299.618 733.751,301.618 732.5,303.5C 736.999,280.85 741.499,258.183 746,235.5C 747.136,231.757 748.47,228.09 750,224.5C 751.406,221.591 753.572,219.591 756.5,218.5 Z"/></g>
<g><path style="opacity:1" fill="#fafafa" d="M 636.5,296.5 C 642.137,304.322 647.637,312.322 653,320.5C 659.864,331.327 660.198,342.327 654,353.5C 647.945,361.222 642.278,369.222 637,377.5C 631.387,368.888 625.387,360.554 619,352.5C 613.866,341.172 614.533,330.172 621,319.5C 626.672,312.15 631.839,304.483 636.5,296.5 Z"/></g>
<g><path style="opacity:0.004" fill="#fefffe" d="M 1112.5,312.5 C 1113.83,313.167 1113.83,313.167 1112.5,312.5 Z"/></g>
<g><path style="opacity:0.004" fill="#fefffe" d="M 11.5,323.5 C 12.8333,324.167 12.8333,324.167 11.5,323.5 Z"/></g>
<g><path style="opacity:0.004" fill="#fefffe" d="M 227.5,335.5 C 228.833,336.167 228.833,336.167 227.5,335.5 Z"/></g>
<g><path style="opacity:0.004" fill="#fefffe" d="M 230.5,337.5 C 231.833,338.167 231.833,338.167 230.5,337.5 Z"/></g>
<g><path style="opacity:0.686" fill="#5590b9" d="M 1027.5,291.5 C 1031.73,295.886 1033.57,301.219 1033,307.5C 1033.67,332.833 1033.67,358.167 1033,383.5C 1032.65,396.021 1031.82,408.354 1030.5,420.5C 1031.44,386.838 1031.6,353.171 1031,319.5C 1031.04,309.97 1029.87,300.637 1027.5,291.5 Z"/></g>
<g><path style="opacity:0.004" fill="#fefffe" d="M 65.5,339.5 C 66.8333,340.167 66.8333,340.167 65.5,339.5 Z"/></g>
<g><path style="opacity:0.004" fill="#fefffe" d="M 200.5,340.5 C 201.833,341.167 201.833,341.167 200.5,340.5 Z"/></g>
<g><path style="opacity:1" fill="#2973aa" d="M 942.5,377.5 C 929.533,357.237 918.366,335.904 909,313.5C 907.333,312.167 905.667,312.167 904,313.5C 903.607,334.027 905.441,354.36 909.5,374.5C 908.21,373.942 907.377,372.942 907,371.5C 906.667,367.833 906.333,364.167 906,360.5C 903.94,356.923 902.107,352.589 900.5,347.5C 901.812,336 901.145,324.5 898.5,313C 898.833,312.167 899.167,311.333 899.5,310.5C 903.701,311.771 907.367,310.771 910.5,307.5C 910.833,307.833 911.167,308.167 911.5,308.5C 910.978,309.607 910.645,310.774 910.5,312C 913.815,321.775 917.815,331.275 922.5,340.5C 923.325,341.386 924.325,341.719 925.5,341.5C 925.312,339.897 925.812,338.563 927,337.5C 927.215,340.856 927.215,344.189 927,347.5C 929.934,352.369 932.601,357.369 935,362.5C 936.512,363.257 937.846,364.257 939,365.5C 940.403,369.414 941.57,373.414 942.5,377.5 Z"/></g>
<g><path style="opacity:1" fill="#fdfdfd" d="M 913.5,346.5 C 926.862,367.885 938.696,390.218 949,413.5C 954.944,429.136 953.278,443.802 944,457.5C 935.227,466.306 924.727,472.14 912.5,475C 902.836,476.709 893.336,478.876 884,481.5C 883.137,483.749 883.637,485.582 885.5,487C 904.021,486.495 921.521,481.995 938,473.5C 937.87,497.925 926.036,513.425 902.5,520C 893.854,521.479 885.187,522.812 876.5,524C 872.777,525.259 871.777,527.592 873.5,531C 890.528,532.061 906.695,528.894 922,521.5C 923.62,529.302 921.953,536.302 917,542.5C 907.123,553.855 894.623,560.021 879.5,561C 871.833,561.333 864.167,561.667 856.5,562C 853.828,564.679 854.162,567.012 857.5,569C 873.133,570.266 888.466,568.766 903.5,564.5C 897.613,584.545 884.28,596.379 863.5,600C 852.866,601.11 842.199,601.777 831.5,602C 828.75,605.012 829.083,607.679 832.5,610C 847.024,611.317 861.191,609.817 875,605.5C 872.384,616.182 866.218,624.349 856.5,630C 846.521,635.397 835.854,638.397 824.5,639C 784.223,640.61 745.556,633.61 708.5,618C 734.088,614.456 755.921,603.622 774,585.5C 789.097,564.586 794.43,541.253 790,515.5C 784.139,489.724 777.806,464.057 771,438.5C 767.126,417.569 775.626,405.235 796.5,401.5C 806.963,404.154 817.296,407.32 827.5,411C 843.51,417.339 859.51,423.673 875.5,430C 910.235,438.599 925.735,425.099 922,389.5C 918.841,375.204 916.007,360.871 913.5,346.5 Z"/></g>
<g><path style="opacity:1" fill="#fdfdfd" d="M 359.5,345.5 C 358.277,359.137 355.777,372.804 352,386.5C 347.007,424.842 363.174,439.008 400.5,429C 425.166,418.445 450.333,409.278 476,401.5C 496.799,404.106 505.799,415.773 503,436.5C 496.468,461.768 490.134,487.101 484,512.5C 476.299,566.119 498.465,600.285 550.5,615C 555.477,616.107 560.477,617.107 565.5,618C 527.415,633.721 487.748,640.721 446.5,639C 430.141,637.735 416.307,631.235 405,619.5C 402.197,615.859 400.03,611.859 398.5,607.5C 399,607.167 399.5,606.833 400,606.5C 413.608,610.172 427.441,611.338 441.5,610C 443.619,607.782 443.952,605.282 442.5,602.5C 431.186,601.778 419.853,600.944 408.5,600C 389.737,595.737 377.071,584.57 370.5,566.5C 370.667,565.833 370.833,565.167 371,564.5C 385.802,569.109 400.969,570.609 416.5,569C 418.396,567.192 418.896,565.025 418,562.5C 399.807,563.995 382.641,560.495 366.5,552C 356.181,544.853 350.847,535.02 350.5,522.5C 366.195,528.909 382.528,531.743 399.5,531C 402.461,527.237 401.461,524.904 396.5,524C 385.327,522.971 374.327,520.971 363.5,518C 345.054,508.947 335.887,494.114 336,473.5C 348.651,480.37 362.151,484.87 376.5,487C 380.5,487.667 384.5,487.667 388.5,487C 391.341,483.841 390.674,481.508 386.5,480C 320.071,472.428 304.238,439.928 339,382.5C 346.367,370.43 353.2,358.096 359.5,345.5 Z"/></g>
<g><path style="opacity:0.004" fill="#fefffe" d="M 1094.5,357.5 C 1095.83,358.167 1095.83,358.167 1094.5,357.5 Z"/></g>
<g><path style="opacity:1" fill="#fcfcfc" d="M 653.5,371.5 C 654.167,378.167 654.833,384.833 655.5,391.5C 654.661,408.805 658.828,424.805 668,439.5C 677.95,453.052 688.616,466.052 700,478.5C 707.266,488.101 712.266,498.768 715,510.5C 715.414,510.957 715.914,511.291 716.5,511.5C 726.724,506.106 735.224,498.772 742,489.5C 747.556,479.166 749.556,468.166 748,456.5C 745.635,444.412 743.802,432.245 742.5,420C 742.347,407.954 748.014,400.287 759.5,397C 766.276,396.08 772.943,396.414 779.5,398C 767.259,403.976 761.259,413.809 761.5,427.5C 761.631,433.2 762.131,438.866 763,444.5C 770.435,469.239 776.768,494.239 782,519.5C 786.882,559.267 771.048,586.767 734.5,602C 721.689,606.119 708.689,609.453 695.5,612C 679.64,627.437 661.307,639.104 640.5,647C 632.121,648.646 624.454,646.979 617.5,642C 602.699,633.203 589.032,622.87 576.5,611C 556.009,609.059 537.009,602.725 519.5,592C 503.535,580.577 494.368,565.077 492,545.5C 491.168,533.794 491.501,522.128 493,510.5C 498.793,487.453 504.793,464.453 511,441.5C 511.853,432.114 511.519,422.781 510,413.5C 506.833,406.333 501.667,401.167 494.5,398C 503.73,395.659 512.73,396.325 521.5,400C 528.184,405.203 531.184,412.036 530.5,420.5C 528.669,434.984 527.003,449.484 525.5,464C 526.291,486.398 536.958,502.231 557.5,511.5C 559.922,502.74 563.422,494.407 568,486.5C 578.289,473.209 588.955,460.209 600,447.5C 608.66,435.843 614.327,422.843 617,408.5C 618.061,395.856 618.728,383.19 619,370.5C 626.608,378.379 631.608,387.713 634,398.5C 636.522,401.326 638.522,400.993 640,397.5C 642.145,387.542 646.645,378.875 653.5,371.5 Z"/></g>
<g><path style="opacity:1" fill="#2a72a8" d="M 552.5,360.5 C 555.164,371.155 557.83,381.822 560.5,392.5C 562.496,403.805 564.496,415.139 566.5,426.5C 562.417,435.763 558.75,445.096 555.5,454.5C 555.781,450.812 556.281,447.145 557,443.5C 559.532,439.769 561.532,435.769 563,431.5C 564.882,422.886 563.882,414.553 560,406.5C 559.667,402.167 559.333,397.833 559,393.5C 558.667,393.167 558.333,392.833 558,392.5C 557.814,394.9 557.314,397.234 556.5,399.5C 556.167,398.667 555.833,397.833 555.5,397C 557.263,390.218 556.596,383.718 553.5,377.5C 552.505,371.872 552.171,366.206 552.5,360.5 Z"/></g>
<g><path style="opacity:1" fill="#808080" d="M 653.5,371.5 C 653.56,370.957 653.893,370.624 654.5,370.5C 655.497,377.468 655.83,384.468 655.5,391.5C 654.833,384.833 654.167,378.167 653.5,371.5 Z"/></g>
<g><path style="opacity:1" fill="#296ea1" d="M 538.5,404.5 C 534.838,396.674 528.838,391.508 520.5,389C 508.131,386.951 495.798,387.118 483.5,389.5C 485.958,387.287 488.958,386.121 492.5,386C 505.206,384.468 517.539,385.801 529.5,390C 534.402,393.718 537.402,398.552 538.5,404.5 Z"/></g>
<g><path style="opacity:1" fill="#f8f8f8" d="M 563.5,478.5 C 562.539,476.735 562.205,474.735 562.5,472.5C 563.101,461.763 565.434,451.43 569.5,441.5C 570.674,440.486 571.34,439.153 571.5,437.5C 581.002,421.493 593.502,408.16 609,397.5C 608.795,410.316 605.461,422.316 599,433.5C 587.333,448.663 575.5,463.663 563.5,478.5 Z"/></g>
<g><path style="opacity:1" fill="#f8f8f8" d="M 664.5,398.5 C 694.457,417.068 709.957,444.068 711,479.5C 702.71,468.874 694.043,458.541 685,448.5C 678.059,439.623 672.392,429.956 668,419.5C 665.863,412.651 664.697,405.651 664.5,398.5 Z"/></g>
<g><path style="opacity:1" fill="#2c6b9b" d="M 369.5,343.5 C 369.624,355.214 367.958,366.547 364.5,377.5C 364.833,378.833 365.167,380.167 365.5,381.5C 361.888,390.144 360.721,399.144 362,408.5C 363.677,410.525 364.677,412.859 365,415.5C 367.736,418.099 370.569,420.432 373.5,422.5C 371.821,422.108 370.154,421.608 368.5,421C 362.084,414.927 359.084,407.427 359.5,398.5C 362.6,380.011 365.933,361.677 369.5,343.5 Z"/></g>
<g><path style="opacity:1" fill="#2974a9" d="M 864.5,415.5 C 843.113,406.981 821.446,399.148 799.5,392C 785.425,388.147 771.091,386.647 756.5,387.5C 756.918,386.778 757.584,386.278 758.5,386C 769.479,384.981 780.312,385.815 791,388.5C 793.76,388.386 796.093,387.386 798,385.5C 801.821,386.553 805.655,387.553 809.5,388.5C 807.833,389.167 806.167,389.833 804.5,390.5C 804.709,391.086 805.043,391.586 805.5,392C 808.5,392.333 811.5,392.667 814.5,393C 813.833,393.333 813.167,393.667 812.5,394C 815.444,394.97 818.444,395.804 821.5,396.5C 823.954,398.821 826.787,399.154 830,397.5C 831.811,398.424 831.645,399.257 829.5,400C 838.164,403.944 847.164,406.777 856.5,408.5C 859.239,410.851 861.905,413.184 864.5,415.5 Z"/></g>
<g><path style="opacity:0.004" fill="#fefffe" d="M 164.5,427.5 C 165.833,428.167 165.833,428.167 164.5,427.5 Z"/></g>
<g><path style="opacity:0.744" fill="#5690b8" d="M 240.5,399.5 C 243.656,417.549 245.323,435.883 245.5,454.5C 242.797,436.405 241.13,418.072 240.5,399.5 Z"/></g>
<g><path style="opacity:0.004" fill="#fefffe" d="M 1106.5,432.5 C 1107.83,433.167 1107.83,433.167 1106.5,432.5 Z"/></g>
<g><path style="opacity:1" fill="#040816" d="M 560.5,392.5 C 561.15,392.804 561.817,393.137 562.5,393.5C 563.327,397.459 563.827,401.459 564,405.5C 564.75,406.126 565.584,406.626 566.5,407C 565.941,407.725 565.608,408.558 565.5,409.5C 566.629,415.144 567.629,420.811 568.5,426.5C 568.635,428.808 567.969,430.808 566.5,432.5C 567.903,434.57 569.57,436.237 571.5,437.5C 571.34,439.153 570.674,440.486 569.5,441.5C 568.85,441.804 568.183,442.137 567.5,442.5C 566.813,440.726 565.98,439.059 565,437.5C 561.85,440.107 561.683,442.94 564.5,446C 563.5,446.5 562.5,447 561.5,447.5C 558.575,452.195 557.408,457.195 558,462.5C 557.683,460.699 557.016,460.366 556,461.5C 555.073,472.981 554.239,484.314 553.5,495.5C 553.023,481.736 553.69,468.07 555.5,454.5C 558.75,445.096 562.417,435.763 566.5,426.5C 564.496,415.139 562.496,403.805 560.5,392.5 Z"/></g>
<g><path style="opacity:1" fill="#2b72a7" d="M 951.5,395.5 C 954.5,395.167 955.833,396.5 955.5,399.5C 959.578,398.918 960.578,400.585 958.5,404.5C 961.684,415.932 963.35,427.599 963.5,439.5C 962.619,448.36 959.285,456.027 953.5,462.5C 952.583,463.127 951.583,463.461 950.5,463.5C 953.567,459.917 956.067,455.917 958,451.5C 963.877,431.853 961.71,413.186 951.5,395.5 Z"/></g>
<g><path style="opacity:1" fill="#0e0807" d="M 636.5,404.5 C 639.325,404.081 641.491,405.081 643,407.5C 644.938,425.251 650.271,441.917 659,457.5C 668.026,470.881 676.026,484.881 683,499.5C 691.994,522.621 688.494,543.454 672.5,562C 666.511,566.646 660.011,570.48 653,573.5C 641.748,563.022 630.582,563.022 619.5,573.5C 592.501,562.513 581.334,542.513 586,513.5C 586.733,507.235 588.399,501.235 591,495.5C 597.77,483.73 604.103,471.73 610,459.5C 611.622,454.968 612.622,450.301 613,445.5C 614.869,440.457 617.869,439.457 622,442.5C 624.229,432.583 627.229,422.916 631,413.5C 631.872,409.819 633.706,406.819 636.5,404.5 Z"/></g>
<g><path style="opacity:1" fill="#d5973f" d="M 626.5,467.5 C 623.91,464.806 621.743,461.806 620,458.5C 618.601,461.363 617.601,464.363 617,467.5C 616.184,468.823 615.017,469.489 613.5,469.5C 615.695,463.581 617.695,457.581 619.5,451.5C 622.609,456.492 624.942,461.825 626.5,467.5 Z"/></g>
<g><path style="opacity:1" fill="#c38e3c" d="M 630.5,439.5 C 630.334,444.511 630.501,449.511 631,454.5C 633.702,459.563 635.536,464.897 636.5,470.5C 634.05,464.923 631.55,459.257 629,453.5C 628.365,448.593 628.865,443.926 630.5,439.5 Z"/></g>
<g><path style="opacity:1" fill="#c38f3b" d="M 639.5,428.5 C 641.741,436.22 644.408,443.887 647.5,451.5C 644.919,448.68 643.086,445.346 642,441.5C 640.369,437.311 639.536,432.978 639.5,428.5 Z"/></g>
<g><path style="opacity:1" fill="#bd8c41" d="M 639.5,428.5 C 638.325,427.026 637.325,425.36 636.5,423.5C 634.934,428.181 633.434,432.847 632,437.5C 631.617,438.056 631.117,438.389 630.5,438.5C 631.957,431.295 634.123,424.295 637,417.5C 638.469,420.963 639.303,424.63 639.5,428.5 Z"/></g>
<g><path style="opacity:0.004" fill="#fefffe" d="M 167.5,469.5 C 168.833,470.167 168.833,470.167 167.5,469.5 Z"/></g>
<g><path style="opacity:1" fill="#f5a31e" d="M 639.5,428.5 C 639.536,432.978 640.369,437.311 642,441.5C 643.086,445.346 644.919,448.68 647.5,451.5C 654.641,463.103 661.808,474.769 669,486.5C 671.735,491.299 673.902,496.299 675.5,501.5C 678.07,513.349 679.07,525.349 678.5,537.5C 676.234,540.378 674.234,543.378 672.5,546.5C 670.801,546.34 669.134,546.506 667.5,547C 666.5,548.667 665.167,550 663.5,551C 664.308,551.308 664.975,551.808 665.5,552.5C 664.173,554.311 663.173,556.311 662.5,558.5C 661.281,557.737 660.281,556.737 659.5,555.5C 658.653,557.061 658.986,558.561 660.5,560C 659.207,560.49 657.873,560.657 656.5,560.5C 656.5,561.5 656.5,562.5 656.5,563.5C 651.96,562.718 648.626,560.218 646.5,556C 644.645,555.578 642.811,555.078 641,554.5C 636.384,555.248 631.884,555.582 627.5,555.5C 627.64,557.124 626.973,558.29 625.5,559C 619.393,560.874 613.393,560.707 607.5,558.5C 599.811,553.129 595.144,545.796 593.5,536.5C 593.098,525.746 593.764,515.079 595.5,504.5C 596.361,499.557 598.361,495.224 601.5,491.5C 602.5,491.5 603.5,491.5 604.5,491.5C 604.5,489.833 604.5,488.167 604.5,486.5C 609.962,486.163 611.962,483.497 610.5,478.5C 612.051,475.641 613.051,472.641 613.5,469.5C 615.017,469.489 616.184,468.823 617,467.5C 617.601,464.363 618.601,461.363 620,458.5C 621.743,461.806 623.91,464.806 626.5,467.5C 629.804,474.079 632.138,481.079 633.5,488.5C 633.718,498.573 633.052,508.573 631.5,518.5C 629.037,523.36 627.704,528.693 627.5,534.5C 627.76,536.618 628.76,538.284 630.5,539.5C 632.649,532.574 634.649,525.574 636.5,518.5C 637.79,517.942 638.623,516.942 639,515.5C 639.696,512.522 640.196,509.522 640.5,506.5C 642.188,500.949 642.688,495.282 642,489.5C 640.46,483.049 638.626,476.716 636.5,470.5C 635.536,464.897 633.702,459.563 631,454.5C 630.501,449.511 630.334,444.511 630.5,439.5C 630.5,439.167 630.5,438.833 630.5,438.5C 631.117,438.389 631.617,438.056 632,437.5C 633.434,432.847 634.934,428.181 636.5,423.5C 637.325,425.36 638.325,427.026 639.5,428.5 Z"/></g>
<g><path style="opacity:0.004" fill="#fefffe" d="M 215.5,472.5 C 216.833,473.167 216.833,473.167 215.5,472.5 Z"/></g>
<g><path style="opacity:1" fill="#666666" d="M 562.5,472.5 C 562.205,474.735 562.539,476.735 563.5,478.5C 563.44,479.043 563.107,479.376 562.5,479.5C 561.203,477.027 561.203,474.693 562.5,472.5 Z"/></g>
<g><path style="opacity:1" fill="#2877af" d="M 736.5,443.5 C 744.495,465.173 739.495,483.173 721.5,497.5C 720.668,487.517 720.168,477.517 720,467.5C 718.628,454.667 714.795,442.667 708.5,431.5C 710.132,432.446 711.799,433.446 713.5,434.5C 714.074,430.594 715.24,426.927 717,423.5C 717.791,429.11 717.291,434.61 715.5,440C 715.917,442.498 716.251,444.998 716.5,447.5C 717.5,447.5 718.5,447.5 719.5,447.5C 721.148,458.096 722.148,468.763 722.5,479.5C 723.5,479.5 724.5,479.5 725.5,479.5C 725.472,481.582 726.139,483.416 727.5,485C 726.139,486.584 725.472,488.418 725.5,490.5C 729.769,489.216 731.603,486.216 731,481.5C 732,480.167 733,480.167 734,481.5C 734.787,477.494 735.62,473.494 736.5,469.5C 736.285,460.981 736.285,452.315 736.5,443.5 Z"/></g>
<g><path style="opacity:1" fill="#e39e32" d="M 613.5,469.5 C 613.051,472.641 612.051,475.641 610.5,478.5C 611.962,483.497 609.962,486.163 604.5,486.5C 604.5,488.167 604.5,489.833 604.5,491.5C 603.5,491.5 602.5,491.5 601.5,491.5C 605.14,483.889 609.14,476.555 613.5,469.5 Z"/></g>
<g><path style="opacity:1" fill="#357fb8" d="M 1028.5,444.5 C 1025.5,474.148 1019.84,503.148 1011.5,531.5C 1011.68,529.409 1011.35,527.409 1010.5,525.5C 1014.22,520.619 1014.89,515.452 1012.5,510C 1016.44,506.457 1017.44,502.124 1015.5,497C 1016.17,496 1016.83,495 1017.5,494C 1016.03,490.65 1015.36,487.15 1015.5,483.5C 1016.5,483.5 1017.5,483.5 1018.5,483.5C 1019.62,477.642 1021.45,471.975 1024,466.5C 1024.81,459.473 1025.81,452.473 1027,445.5C 1027.38,444.944 1027.88,444.611 1028.5,444.5 Z"/></g>
<g><path style="opacity:1" fill="#2973a9" d="M 313.5,416.5 C 311.768,424.08 311.268,431.746 312,439.5C 313.773,450.047 318.439,459.047 326,466.5C 325.947,478.282 328.114,489.615 332.5,500.5C 331.85,500.196 331.183,499.863 330.5,499.5C 329.376,501.369 328.543,503.369 328,505.5C 326.418,503.376 326.251,501.21 327.5,499C 326.061,498.009 325.061,496.676 324.5,495C 325.958,492.923 326.624,490.59 326.5,488C 325.833,484.667 325.167,481.333 324.5,478C 325.169,474.501 325.336,471.001 325,467.5C 320.62,462.789 316.62,457.789 313,452.5C 310.76,442.284 310.094,431.951 311,421.5C 311.374,419.509 312.207,417.842 313.5,416.5 Z"/></g>
<g><path style="opacity:1" fill="#b88649" d="M 633.5,488.5 C 635.159,498.639 634.493,508.639 631.5,518.5C 633.052,508.573 633.718,498.573 633.5,488.5 Z"/></g>
<g><path style="opacity:0.004" fill="#fefffe" d="M 125.5,502.5 C 126.833,503.167 126.833,503.167 125.5,502.5 Z"/></g>
<g><path style="opacity:1" fill="#3881ba" d="M 250.5,486.5 C 252.605,492.086 254.605,497.753 256.5,503.5C 257.873,503.343 259.207,503.51 260.5,504C 259.446,505.388 259.28,506.888 260,508.5C 260.333,508.167 260.667,507.833 261,507.5C 261.901,510.071 263.234,512.404 265,514.5C 265.249,513.376 265.749,512.376 266.5,511.5C 267.321,514.447 267.821,517.447 268,520.5C 268.333,520.167 268.667,519.833 269,519.5C 269.374,520.416 269.874,521.25 270.5,522C 269.167,523.333 269.167,524.667 270.5,526C 270,526.5 269.5,527 269,527.5C 265.187,523.679 264.687,524.346 267.5,529.5C 267.167,530.167 266.833,530.833 266.5,531.5C 265.148,530.482 264.148,529.149 263.5,527.5C 263.167,528 262.833,528.5 262.5,529C 263.569,532.443 264.402,535.943 265,539.5C 266.817,541.416 267.984,543.749 268.5,546.5C 269.167,545.5 269.833,544.5 270.5,543.5C 270.833,544.167 271.167,544.833 271.5,545.5C 270.485,549.131 270.319,552.798 271,556.5C 274.293,564.671 277.127,573.005 279.5,581.5C 266.037,551.103 256.37,519.436 250.5,486.5 Z"/></g>
<g><path style="opacity:1" fill="#c58b3d" d="M 640.5,506.5 C 640.196,509.522 639.696,512.522 639,515.5C 638.623,516.942 637.79,517.942 636.5,518.5C 637.542,514.303 638.875,510.303 640.5,506.5 Z"/></g>
<g><path style="opacity:0.004" fill="#fefffe" d="M 173.5,519.5 C 174.833,520.167 174.833,520.167 173.5,519.5 Z"/></g>
<g><path style="opacity:1" fill="#c9903b" d="M 675.5,501.5 C 679.922,511.619 681.422,522.285 680,533.5C 679.79,535.058 679.29,536.391 678.5,537.5C 679.07,525.349 678.07,513.349 675.5,501.5 Z"/></g>
<g><path style="opacity:1" fill="#bb8535" d="M 595.5,504.5 C 593.764,515.079 593.098,525.746 593.5,536.5C 590.541,525.633 591.207,514.966 595.5,504.5 Z"/></g>
<g><path style="opacity:1" fill="#d99731" d="M 631.5,518.5 C 630.982,523.212 630.482,527.879 630,532.5C 631.942,527.623 634.108,522.956 636.5,518.5C 634.649,525.574 632.649,532.574 630.5,539.5C 628.76,538.284 627.76,536.618 627.5,534.5C 627.704,528.693 629.037,523.36 631.5,518.5 Z"/></g>
<g><path style="opacity:1" fill="#2a73a8" d="M 336.5,507.5 C 338.47,509.647 340.303,511.98 342,514.5C 341.91,522.343 342.91,530.009 345,537.5C 348.908,544.573 353.408,551.24 358.5,557.5C 356.139,556.565 353.972,555.232 352,553.5C 351.558,555.679 350.558,556.345 349,555.5C 349.112,553.822 349.612,552.155 350.5,550.5C 348.768,547.129 347.101,543.796 345.5,540.5C 344.5,540.5 343.5,540.5 342.5,540.5C 342.288,544.315 341.622,544.315 340.5,540.5C 341.4,538.761 342.067,536.928 342.5,535C 341.861,531.236 340.861,527.569 339.5,524C 339.439,521.721 340.105,519.721 341.5,518C 339.925,514.432 338.258,510.932 336.5,507.5 Z"/></g>
<g><path style="opacity:1" fill="#e79e2f" d="M 678.5,537.5 C 677.177,544.479 674.011,550.479 669,555.5C 665.37,559.061 661.203,561.728 656.5,563.5C 656.5,562.5 656.5,561.5 656.5,560.5C 657.873,560.657 659.207,560.49 660.5,560C 658.986,558.561 658.653,557.061 659.5,555.5C 660.281,556.737 661.281,557.737 662.5,558.5C 663.173,556.311 664.173,554.311 665.5,552.5C 664.975,551.808 664.308,551.308 663.5,551C 665.167,550 666.5,548.667 667.5,547C 669.134,546.506 670.801,546.34 672.5,546.5C 674.234,543.378 676.234,540.378 678.5,537.5 Z"/></g>
<g><path style="opacity:1" fill="#e39c2c" d="M 656.5,563.5 C 655.828,564.267 654.995,564.934 654,565.5C 646.062,559.815 637.229,557.981 627.5,560C 624.381,561.643 621.215,563.143 618,564.5C 613.764,563.637 610.264,561.637 607.5,558.5C 613.393,560.707 619.393,560.874 625.5,559C 626.973,558.29 627.64,557.124 627.5,555.5C 631.884,555.582 636.384,555.248 641,554.5C 642.811,555.078 644.645,555.578 646.5,556C 648.626,560.218 651.96,562.718 656.5,563.5 Z"/></g>
<g><path style="opacity:0.384" fill="#5d92b8" d="M 1009.5,539.5 C 1006,553.021 1001.33,566.021 995.5,578.5C 998.833,567.518 1002.33,556.518 1006,545.5C 1006.72,543.121 1007.88,541.121 1009.5,539.5 Z"/></g>
<g><path style="opacity:0.004" fill="#fefffe" d="M 224.5,560.5 C 225.833,561.167 225.833,561.167 224.5,560.5 Z"/></g>
<g><path style="opacity:0.004" fill="#fefffe" d="M 200.5,567.5 C 201.833,568.167 201.833,568.167 200.5,567.5 Z"/></g>
<g><path style="opacity:1" fill="#0d0d0d" d="M 628.5,573.5 C 633.511,573.334 638.511,573.501 643.5,574C 648.79,574.958 651.624,578.124 652,583.5C 652.333,589.5 652.667,595.5 653,601.5C 656.809,605.646 659.309,610.479 660.5,616C 657.376,626.461 650.71,633.795 640.5,638C 637.5,638.667 634.5,638.667 631.5,638C 621.571,633.077 614.904,625.41 611.5,615C 613.163,609.172 615.997,604.005 620,599.5C 620.223,592.706 621.223,586.039 623,579.5C 624.36,576.977 626.193,574.977 628.5,573.5 Z"/></g>
<g><path style="opacity:1" fill="#f9f9f9" d="M 630.5,579.5 C 634.514,579.334 638.514,579.501 642.5,580C 644,580.833 645.167,582 646,583.5C 647.163,590.103 647.83,596.77 648,603.5C 653.533,609.903 653.867,616.57 649,623.5C 645.751,627.936 641.585,630.936 636.5,632.5C 632.762,631.931 629.595,630.264 627,627.5C 623.635,623.472 621.135,618.972 619.5,614C 620.561,609.481 622.394,605.314 625,601.5C 625.307,596.118 625.974,590.785 627,585.5C 627.564,583.113 628.73,581.113 630.5,579.5 Z"/></g>
<g><path style="opacity:0.004" fill="#fefffe" d="M 170.5,583.5 C 171.833,584.167 171.833,584.167 170.5,583.5 Z"/></g>
<g><path style="opacity:1" fill="#2f6f9e" d="M 929.5,536.5 C 928.56,542.623 926.56,548.29 923.5,553.5C 919.786,554.333 916.619,556.333 914,559.5C 913.667,563.833 913.333,568.167 913,572.5C 907.665,582.955 900.498,592.121 891.5,600C 890.552,600.483 889.552,600.649 888.5,600.5C 894.469,595.364 899.969,589.697 905,583.5C 909.869,575.892 912.536,567.559 913,558.5C 919.738,551.993 925.238,544.659 929.5,536.5 Z"/></g>
<g><path style="opacity:1" fill="#2d6e9d" d="M 361.5,570.5 C 367.198,583.208 375.864,593.542 387.5,601.5C 388.429,602.689 388.762,604.022 388.5,605.5C 377.588,597.348 368.755,587.348 362,575.5C 361.506,573.866 361.34,572.199 361.5,570.5 Z"/></g>
<g><path style="opacity:0.004" fill="#fefffe" d="M 1112.5,612.5 C 1113.83,613.167 1113.83,613.167 1112.5,612.5 Z"/></g>
<g><path style="opacity:1" fill="#2874a9" d="M 594.5,637.5 C 589.87,636.043 585.87,633.543 582.5,630C 579.582,629.284 576.915,629.784 574.5,631.5C 573.018,629.885 571.184,628.885 569,628.5C 559.81,630.956 550.644,633.289 541.5,635.5C 552.942,631.629 564.442,627.629 576,623.5C 582.593,627.592 588.76,632.259 594.5,637.5 Z"/></g>
<g><path style="opacity:1" fill="#1f7abd" d="M 594.5,637.5 C 594.833,637.5 595.167,637.5 595.5,637.5C 595.539,638.583 595.873,639.583 596.5,640.5C 595.333,640.833 594.167,641.167 593,641.5C 589.857,640.893 586.69,640.559 583.5,640.5C 582.391,639.71 581.058,639.21 579.5,639C 569.151,638.168 558.817,638.334 548.5,639.5C 544.176,641.232 539.842,642.732 535.5,644C 530.479,643.608 525.479,643.775 520.5,644.5C 521.729,645.281 523.062,645.781 524.5,646C 523.5,646.167 522.5,646.333 521.5,646.5C 520.141,645.015 517.808,644.182 514.5,644C 523.079,641.696 531.745,639.863 540.5,638.5C 540.5,637.5 540.5,636.5 540.5,635.5C 540.833,635.5 541.167,635.5 541.5,635.5C 550.644,633.289 559.81,630.956 569,628.5C 571.184,628.885 573.018,629.885 574.5,631.5C 576.915,629.784 579.582,629.284 582.5,630C 585.87,633.543 589.87,636.043 594.5,637.5 Z"/></g>
<g><path style="opacity:1" fill="#081829" d="M 696.5,638.5 C 705.839,638.334 715.173,638.5 724.5,639C 728.529,639.416 732.196,640.583 735.5,642.5C 720.923,640.65 706.256,639.983 691.5,640.5C 693.167,639.833 694.833,639.167 696.5,638.5 Z"/></g>
<g><path style="opacity:1" fill="#031024" d="M 583.5,640.5 C 585.167,641.167 586.833,641.833 588.5,642.5C 570.843,640.234 553.509,641.567 536.5,646.5C 541.822,643.913 547.489,642.079 553.5,641C 563.494,640.5 573.494,640.334 583.5,640.5 Z"/></g>
<g><path style="opacity:1" fill="#326e9d" d="M 595.5,637.5 C 600.148,640.828 605.148,643.661 610.5,646C 603.294,644.539 595.961,643.372 588.5,642.5C 586.833,641.833 585.167,641.167 583.5,640.5C 586.69,640.559 589.857,640.893 593,641.5C 594.167,641.167 595.333,640.833 596.5,640.5C 595.873,639.583 595.539,638.583 595.5,637.5 Z"/></g>
<g><path style="opacity:1" fill="#326c98" d="M 684.5,633.5 C 682.678,635.823 680.678,637.989 678.5,640C 684.42,639.185 690.42,638.685 696.5,638.5C 694.833,639.167 693.167,639.833 691.5,640.5C 682.52,640.867 673.853,642.367 665.5,645C 671.889,641.144 678.222,637.311 684.5,633.5 Z"/></g>
<g><path style="opacity:0.004" fill="#fefffe" d="M 83.5,642.5 C 84.8333,643.167 84.8333,643.167 83.5,642.5 Z"/></g>
<g><path style="opacity:1" fill="#2675b0" d="M 540.5,635.5 C 540.5,636.5 540.5,637.5 540.5,638.5C 531.745,639.863 523.079,641.696 514.5,644C 517.808,644.182 520.141,645.015 521.5,646.5C 522.5,646.333 523.5,646.167 524.5,646C 523.062,645.781 521.729,645.281 520.5,644.5C 525.479,643.775 530.479,643.608 535.5,644C 539.842,642.732 544.176,641.232 548.5,639.5C 558.817,638.334 569.151,638.168 579.5,639C 581.058,639.21 582.391,639.71 583.5,640.5C 573.494,640.334 563.494,640.5 553.5,641C 547.489,642.079 541.822,643.913 536.5,646.5C 521.065,653.529 505.065,659.029 488.5,663C 481.167,663.333 473.833,663.667 466.5,664C 465.915,665.302 465.249,666.469 464.5,667.5C 464.286,665.856 464.62,664.356 465.5,663C 470.833,662.667 476.167,662.333 481.5,662C 477.185,659.831 476.852,657.497 480.5,655C 486.99,654.447 486.99,655.113 480.5,657C 485.163,659.476 490.163,660.143 495.5,659C 495.854,657.374 495.854,655.541 495.5,653.5C 487.114,653.228 486.78,652.394 494.5,651C 495.337,649.989 495.67,648.822 495.5,647.5C 484.53,648.543 473.53,649.21 462.5,649.5C 457.119,649.494 452.119,648.828 447.5,647.5C 479.206,648.826 510.206,644.826 540.5,635.5 Z"/></g>
<g><path style="opacity:1" fill="#fcfcfb" d="M 699.5,644.5 C 708.213,644.248 716.88,644.748 725.5,646C 745.723,653.945 766.057,661.611 786.5,669C 791.769,670.106 797.103,670.773 802.5,671C 805.263,682.885 808.263,694.718 811.5,706.5C 803.709,706.811 796.042,705.978 788.5,704C 776.095,699.976 764.095,694.976 752.5,689C 726.832,678.141 700.498,676.474 673.5,684C 660.384,687.311 647.884,692.144 636,698.5C 635.5,686.505 635.333,674.505 635.5,662.5C 640.327,662.059 644.993,660.893 649.5,659C 653.714,656.726 658.047,654.726 662.5,653C 674.984,650.214 687.318,647.38 699.5,644.5 Z"/></g>
<g><path style="opacity:1" fill="#fbfbfb" d="M 555.5,646.5 C 570.008,645.734 584.341,646.901 598.5,650C 609.53,653.505 620.196,657.671 630.5,662.5C 630.5,674.167 630.5,685.833 630.5,697.5C 618.206,692.198 605.54,687.698 592.5,684C 576.038,680.029 559.371,678.695 542.5,680C 537.396,680.954 532.396,682.287 527.5,684C 512.39,691.223 497.057,697.889 481.5,704C 474.89,705.441 468.224,705.774 461.5,705C 465.357,693.741 468.357,682.241 470.5,670.5C 477.881,670.686 485.214,670.186 492.5,669C 513.817,661.99 534.817,654.49 555.5,646.5 Z"/></g>
<g><path style="opacity:1" fill="#081425" d="M 839.5,644.5 C 833.66,646.616 827.66,647.949 821.5,648.5C 807.233,649.085 793.233,648.085 779.5,645.5C 791.511,645.423 803.511,645.757 815.5,646.5C 821.951,646.876 828.118,645.876 834,643.5C 835.699,644.406 837.533,644.739 839.5,644.5 Z"/></g>
<g><path style="opacity:0.004" fill="#fefffe" d="M 23.5,647.5 C 24.8333,648.167 24.8333,648.167 23.5,647.5 Z"/></g>
<g><path style="opacity:1" fill="#2677b2" d="M 779.5,645.5 C 793.233,648.085 807.233,649.085 821.5,648.5C 820.737,649.268 819.737,649.768 818.5,650C 815.333,650.167 812.167,650.333 809,650.5C 802.823,650.017 796.657,649.85 790.5,650C 785.44,653.103 780.106,654.603 774.5,654.5C 774.709,655.086 775.043,655.586 775.5,656C 781.183,656.281 786.516,657.781 791.5,660.5C 796.841,661.287 802.174,662.12 807.5,663C 809.229,664.789 809.896,666.956 809.5,669.5C 808.609,667.709 807.609,665.876 806.5,664C 795.548,663.543 784.881,661.543 774.5,658C 761.962,651.733 748.962,646.567 735.5,642.5C 732.196,640.583 728.529,639.416 724.5,639C 715.173,638.5 705.839,638.334 696.5,638.5C 690.42,638.685 684.42,639.185 678.5,640C 680.678,637.989 682.678,635.823 684.5,633.5C 688.201,629.637 692.368,626.304 697,623.5C 723.62,634.197 751.12,641.53 779.5,645.5 Z"/></g>
<g><path style="opacity:1" fill="#3a698e" d="M 621.5,652.5 C 621.735,651.903 622.235,651.57 623,651.5C 627.09,653.197 631.257,654.697 635.5,656C 634.975,656.692 634.308,657.192 633.5,657.5C 629.099,656.759 625.099,655.092 621.5,652.5 Z"/></g>
<g><path style="opacity:0.004" fill="#fefffe" d="M 83.5,655.5 C 84.8333,656.167 84.8333,656.167 83.5,655.5 Z"/></g>
<g><path style="opacity:1" fill="#4183b4" d="M 974.5,625.5 C 964.411,645.363 953.077,664.363 940.5,682.5C 940.343,681.127 940.51,679.793 941,678.5C 944.737,675.361 946.57,671.361 946.5,666.5C 947.5,666.5 948.5,666.5 949.5,666.5C 949.201,664.396 949.534,662.396 950.5,660.5C 951.086,660.709 951.586,661.043 952,661.5C 950.878,656.08 953.044,652.413 958.5,650.5C 960.231,646.539 962.398,642.872 965,639.5C 965.658,637.892 965.158,636.725 963.5,636C 967.66,635.168 970.16,632.668 971,628.5C 971.759,626.937 972.926,625.937 974.5,625.5 Z"/></g>
<g><path style="opacity:0.004" fill="#fefffe" d="M 1037.5,680.5 C 1038.83,681.167 1038.83,681.167 1037.5,680.5 Z"/></g>
<g><path style="opacity:1" fill="#f7f7f7" d="M 703.5,684.5 C 709.842,684.334 716.175,684.5 722.5,685C 728.838,686.669 735.171,688.335 741.5,690C 759.094,698.965 777.427,705.965 796.5,711C 802.5,711.333 808.5,711.667 814.5,712C 816.398,715.621 818.898,718.788 822,721.5C 822.595,722.899 822.428,724.232 821.5,725.5C 811.036,726.698 800.702,725.864 790.5,723C 772.277,716.555 754.277,709.555 736.5,702C 721.752,697.927 706.752,696.593 691.5,698C 678.238,701.532 665.238,705.865 652.5,711C 642.943,715.071 633.276,715.405 623.5,712C 610.897,707.466 598.23,703.132 585.5,699C 567.817,696.08 550.484,697.413 533.5,703C 521.419,707.805 509.419,712.805 497.5,718C 483.015,724.006 468.015,726.506 452.5,725.5C 452.069,724.707 451.735,723.873 451.5,723C 454.152,719.01 456.818,715.01 459.5,711C 466.876,710.747 474.209,710.081 481.5,709C 500.623,701.604 519.623,693.937 538.5,686C 558.805,684.185 578.805,685.851 598.5,691C 610.271,694.802 621.771,699.302 633,704.5C 645.598,699.078 658.431,694.245 671.5,690C 682.175,687.442 692.842,685.608 703.5,684.5 Z"/></g>
<g><path style="opacity:1" fill="#2f6e9e" d="M 583.5,707.5 C 573.516,706.537 563.516,706.37 553.5,707C 544.737,708.515 536.071,710.348 527.5,712.5C 545.621,704.019 564.288,702.352 583.5,707.5 Z"/></g>
<g><path style="opacity:0.004" fill="#fefffe" d="M 260.5,711.5 C 261.833,712.167 261.833,712.167 260.5,711.5 Z"/></g>
<g><path style="opacity:0.947" fill="#4384b4" d="M 932.5,694.5 C 924.222,707.403 915.222,719.737 905.5,731.5C 905.422,728.748 905.255,726.082 905,723.5C 905.739,724.574 906.739,725.241 908,725.5C 912.341,721.678 915.175,717.011 916.5,711.5C 917.675,711.719 918.675,711.386 919.5,710.5C 921.546,708.218 922.546,705.551 922.5,702.5C 923.978,702.762 925.311,702.429 926.5,701.5C 924.076,699.286 924.743,698.286 928.5,698.5C 928.277,696.658 927.943,694.825 927.5,693C 927.833,692.167 928.167,691.333 928.5,690.5C 929.429,691.689 929.762,693.022 929.5,694.5C 930.5,694.5 931.5,694.5 932.5,694.5 Z"/></g>
<g><path style="opacity:0.004" fill="#fefffe" d="M 998.5,716.5 C 999.833,717.167 999.833,717.167 998.5,716.5 Z"/></g>
<g><path style="opacity:1" fill="#071426" d="M 817.5,704.5 C 820.324,710.665 824.324,715.999 829.5,720.5C 828.059,724.323 826.726,728.157 825.5,732C 809.238,733.287 793.572,731.12 778.5,725.5C 788.266,726.763 797.932,728.596 807.5,731C 812.833,731.667 818.167,731.667 823.5,731C 824.341,727.648 825.674,724.482 827.5,721.5C 826.151,718.491 823.817,717.157 820.5,717.5C 819.707,713.12 818.707,708.786 817.5,704.5 Z"/></g>
<g><path style="opacity:0.004" fill="#fefffe" d="M 314.5,740.5 C 315.833,741.167 315.833,741.167 314.5,740.5 Z"/></g>
<g><path style="opacity:1" fill="#3e83b7" d="M 895.5,744.5 C 891.115,751.063 886.115,757.23 880.5,763C 868.063,768.201 855.397,772.701 842.5,776.5C 842.389,775.883 842.056,775.383 841.5,775C 843.5,774.667 845.5,774.333 847.5,774C 848.357,773.311 849.023,772.478 849.5,771.5C 856.214,769.469 863.548,767.303 871.5,765C 872.337,763.989 872.67,762.822 872.5,761.5C 869.252,761.584 866.252,760.751 863.5,759C 865.101,758.727 866.601,758.227 868,757.5C 870.304,759.029 872.804,760.196 875.5,761C 877.134,761.494 878.801,761.66 880.5,761.5C 881.214,759.126 882.548,757.126 884.5,755.5C 883.99,753.912 882.99,752.745 881.5,752C 881.957,751.586 882.291,751.086 882.5,750.5C 884.382,750.642 886.382,750.142 888.5,749C 890.761,747.187 893.095,745.687 895.5,744.5 Z"/></g>
<g><path style="opacity:0.369" fill="#4685b3" d="M 823.5,782.5 C 811.836,786.941 799.836,790.608 787.5,793.5C 787.577,792.25 788.244,791.417 789.5,791C 791.833,790.667 794.167,790.333 796.5,790C 804.877,785.624 813.877,783.124 823.5,782.5 Z"/></g>
<g><path style="opacity:0.995" fill="#4183b4" d="M 740.5,804.5 C 718.899,809.587 696.899,812.92 674.5,814.5C 685.255,812.121 696.255,810.287 707.5,809C 708.5,808.667 709.5,808.333 710.5,808C 707.774,807.818 705.107,807.318 702.5,806.5C 708.81,805.552 715.144,805.552 721.5,806.5C 727.78,805.409 734.113,804.742 740.5,804.5 Z"/></g>
<g><path style="opacity:0.827" fill="#538cb9" d="M 543.5,807.5 C 563.189,809.438 582.856,811.604 602.5,814C 625.498,814.5 648.498,814.667 671.5,814.5C 628.511,818.344 585.845,816.011 543.5,807.5 Z"/></g>
<g><path style="opacity:0.004" fill="#fefffe" d="M 464.5,814.5 C 465.833,815.167 465.833,815.167 464.5,814.5 Z"/></g>
<g><path style="opacity:0.004" fill="#fefffe" d="M 125.5,817.5 C 126.833,818.167 126.833,818.167 125.5,817.5 Z"/></g>
<g><path style="opacity:0.004" fill="#fefffe" d="M 602.5,817.5 C 603.833,818.167 603.833,818.167 602.5,817.5 Z"/></g>
<g><path style="opacity:0.004" fill="#fefffe" d="M 62.5,829.5 C 63.8333,830.167 63.8333,830.167 62.5,829.5 Z"/></g>
</svg>
